<?xml version="1.0" encoding="UTF-8" standalone="no"?>
<!-- Created with Inkscape (http://www.inkscape.org/) -->

<svg
   xmlns:dc="http://purl.org/dc/elements/1.1/"
   xmlns:cc="http://creativecommons.org/ns#"
   xmlns:rdf="http://www.w3.org/1999/02/22-rdf-syntax-ns#"
   xmlns:svg="http://www.w3.org/2000/svg"
   xmlns="http://www.w3.org/2000/svg"
   xmlns:sodipodi="http://sodipodi.sourceforge.net/DTD/sodipodi-0.dtd"
   xmlns:inkscape="http://www.inkscape.org/namespaces/inkscape"
   width="59.541595mm"
   height="59.172703mm"
   viewBox="0 0 59.541596 59.172703"
   version="1.1"
   id="svg8"
   inkscape:version="0.92.4 (5da689c313, 2019-01-14)"
   sodipodi:docname="logo-01.svg">
  <defs
     id="defs2">
    <clipPath
       clipPathUnits="userSpaceOnUse"
       id="clipPath4798">
      <rect
         style="opacity:0.5;fill:#1a1a1a;fill-opacity:1;stroke:none;stroke-width:17.64841843;stroke-miterlimit:2;stroke-dasharray:none"
         id="rect4800"
         width="231.9317"
         height="66.266205"
         x="134.8018"
         y="172.63741" />
    </clipPath>
  </defs>
  <sodipodi:namedview
     id="base"
     pagecolor="#ffffff"
     bordercolor="#666666"
     borderopacity="1.0"
     inkscape:pageopacity="0.0"
     inkscape:pageshadow="2"
     inkscape:zoom="0.3635129"
     inkscape:cx="329.7793"
     inkscape:cy="157.78531"
     inkscape:document-units="mm"
     inkscape:current-layer="layer1"
     showgrid="false"
     fit-margin-top="0"
     fit-margin-left="0"
     fit-margin-right="0"
     fit-margin-bottom="0"
     showborder="false"
     inkscape:window-width="1366"
     inkscape:window-height="696"
     inkscape:window-x="0"
     inkscape:window-y="43"
     inkscape:window-maximized="1" />
  <metadata
     id="metadata5">
    <rdf:RDF>
      <cc:Work
         rdf:about="">
        <dc:format>image/svg+xml</dc:format>
        <dc:type
           rdf:resource="http://purl.org/dc/dcmitype/StillImage" />
        <dc:title></dc:title>
      </cc:Work>
    </rdf:RDF>
  </metadata>
  <g
     inkscape:label="Layer 1"
     inkscape:groupmode="layer"
     id="layer1"
     transform="translate(-38.419163,-127.7906)">
    <g
       id="g5398"
       inkscape:export-xdpi="65.019997"
       inkscape:export-ydpi="65.019997">
      <g
         transform="matrix(3.3589964,0,0,3.3799368,-110.96008,-425.14612)"
         id="g5081">
        <g
           id="g3975"
           style="stroke-width:5;stroke-miterlimit:4;stroke-dasharray:none"
           transform="matrix(0.06483753,0,0,0.06483753,35.617025,121.52707)">
          <path
             inkscape:connector-curvature="0"
             id="path5774"
             d="M 507.69615,508.39539 279.82085,543.13224 158.50752,343.50604"
             style="color:#000000;display:inline;overflow:visible;visibility:visible;fill:none;stroke:#000000;stroke-width:5;stroke-linecap:square;stroke-linejoin:miter;stroke-miterlimit:4;stroke-dasharray:none;stroke-dashoffset:0;stroke-opacity:1;marker:none;enable-background:accumulate"
             sodipodi:nodetypes="ccc" />
          <path
             inkscape:connector-curvature="0"
             id="path5776"
             d="M 515.84237,510.93014 710.4871,623.52754 888.42996,592.17481"
             style="color:#000000;display:inline;overflow:visible;visibility:visible;fill:none;stroke:#000000;stroke-width:5;stroke-linecap:square;stroke-linejoin:miter;stroke-miterlimit:4;stroke-dasharray:none;stroke-dashoffset:0;stroke-opacity:1;marker:none;enable-background:accumulate" />
          <path
             style="color:#000000;display:inline;overflow:visible;visibility:visible;fill:none;stroke:#000000;stroke-width:5;stroke-linecap:square;stroke-linejoin:miter;stroke-miterlimit:4;stroke-dasharray:none;stroke-dashoffset:0;stroke-opacity:1;marker:none;enable-background:accumulate"
             d="M 718.04721,636.39153 695.76095,846.52177 564.61605,710.58512"
             id="path5782"
             inkscape:connector-curvature="0" />
          <path
             style="color:#000000;display:inline;overflow:visible;visibility:visible;fill:none;stroke:#000000;stroke-width:5;stroke-linecap:square;stroke-linejoin:miter;stroke-miterlimit:4;stroke-dasharray:none;stroke-dashoffset:0;stroke-opacity:1;marker:none;enable-background:accumulate"
             d="M 718.28166,632.25984 848.1813,753.61832"
             id="path5784"
             inkscape:connector-curvature="0"
             sodipodi:nodetypes="cc" />
          <path
             style="color:#000000;display:inline;overflow:visible;visibility:visible;fill:none;stroke:#000000;stroke-width:5;stroke-linecap:square;stroke-linejoin:miter;stroke-miterlimit:4;stroke-dasharray:none;stroke-dashoffset:0;stroke-opacity:1;marker:none;enable-background:accumulate"
             d="M 496.3118,526.40188 383.75786,683.74248 168.79084,673.61682 277.21305,516.04178"
             id="path5786"
             inkscape:connector-curvature="0" />
          <path
             style="color:#000000;display:inline;overflow:visible;visibility:visible;fill:none;stroke:#000000;stroke-width:5;stroke-linecap:square;stroke-linejoin:miter;stroke-miterlimit:4;stroke-dasharray:none;stroke-dashoffset:0;stroke-opacity:1;marker:none;enable-background:accumulate"
             d="M 383.99231,679.61078 294.08983,803.00423 166.04009,869.14055"
             id="path5788"
             inkscape:connector-curvature="0"
             sodipodi:nodetypes="ccc" />
          <path
             style="color:#000000;display:inline;overflow:visible;visibility:visible;fill:none;stroke:#000000;stroke-width:5;stroke-linecap:square;stroke-linejoin:miter;stroke-miterlimit:4;stroke-dasharray:none;stroke-dashoffset:0;stroke-opacity:1;marker:none;enable-background:accumulate"
             d="M 270.78102,519.8218 C 102.2008,495.74834 101.96635,499.88004 101.96635,499.88004"
             id="path5790"
             inkscape:connector-curvature="0" />
          <path
             style="color:#000000;display:inline;overflow:visible;visibility:visible;fill:none;stroke:#000000;stroke-width:5;stroke-linecap:square;stroke-linejoin:miter;stroke-miterlimit:4;stroke-dasharray:none;stroke-dashoffset:0;stroke-opacity:1;marker:none;enable-background:accumulate"
             d="M 502.9783,518.49016 564.96772,704.38758 460.48696,829.02631 356.8268,939.20408"
             id="path5792"
             inkscape:connector-curvature="0" />
          <path
             style="color:#000000;display:inline;overflow:visible;visibility:visible;fill:none;stroke:#000000;stroke-width:5;stroke-linecap:square;stroke-linejoin:miter;stroke-miterlimit:4;stroke-dasharray:none;stroke-dashoffset:0;stroke-opacity:1;marker:none;enable-background:accumulate"
             d="M 511.24175,518.95907 346.38387,356.23945 175.15165,342.378"
             id="path5796"
             inkscape:connector-curvature="0" />
          <path
             style="color:#000000;display:inline;overflow:visible;visibility:visible;fill:none;stroke:#000000;stroke-width:5;stroke-linecap:square;stroke-linejoin:miter;stroke-miterlimit:4;stroke-dasharray:none;stroke-dashoffset:0;stroke-opacity:1;marker:none;enable-background:accumulate"
             d="M 350.04669,364.73727 279.32492,186.63435"
             id="path5798"
             inkscape:connector-curvature="0" />
          <path
             style="color:#000000;display:inline;overflow:visible;visibility:visible;fill:none;stroke:#000000;stroke-width:5;stroke-linecap:square;stroke-linejoin:miter;stroke-miterlimit:4;stroke-dasharray:none;stroke-dashoffset:0;stroke-opacity:1;marker:none;enable-background:accumulate"
             d="M 505.04416,518.60739 645.97825,335.93473 598.64013,184.02867"
             id="path5800"
             inkscape:connector-curvature="0" />
          <path
             style="color:#000000;display:inline;overflow:visible;visibility:visible;fill:none;stroke:#000000;stroke-width:5;stroke-linecap:square;stroke-linejoin:miter;stroke-miterlimit:4;stroke-dasharray:none;stroke-dashoffset:0;stroke-opacity:1;marker:none;enable-background:accumulate"
             d="M 502.8322,448.01694 501.71948,321.53139 434.26467,195.4263"
             id="path5802"
             inkscape:connector-curvature="0"
             sodipodi:nodetypes="ccc" />
          <path
             style="color:#000000;display:inline;overflow:visible;visibility:visible;fill:none;stroke:#000000;stroke-width:5;stroke-linecap:square;stroke-linejoin:miter;stroke-miterlimit:4;stroke-dasharray:none;stroke-dashoffset:0;stroke-opacity:1;marker:none;enable-background:accumulate"
             d="M 349.03586,346.02743 429.8985,199.32354"
             id="path5804"
             inkscape:connector-curvature="0"
             sodipodi:nodetypes="cc" />
          <path
             style="color:#000000;display:inline;overflow:visible;visibility:visible;fill:none;stroke:#000000;stroke-width:5;stroke-linecap:square;stroke-linejoin:miter;stroke-miterlimit:4;stroke-dasharray:none;stroke-dashoffset:0;stroke-opacity:1;marker:none;enable-background:accumulate"
             d="M 514.47986,498.41784 700.56898,469.59985 664.45379,339.05562 841.08921,412.37615"
             id="path5806"
             inkscape:connector-curvature="0"
             sodipodi:nodetypes="cccc" />
          <path
             style="color:#000000;display:inline;overflow:visible;visibility:visible;fill:none;stroke:#000000;stroke-width:5;stroke-linecap:square;stroke-linejoin:miter;stroke-miterlimit:4;stroke-dasharray:none;stroke-dashoffset:0;stroke-opacity:1;marker:none;enable-background:accumulate"
             d="M 649.75831,342.36672 807.13092,235.23681"
             id="path5814"
             inkscape:connector-curvature="0" />
          <path
             style="color:#000000;display:inline;overflow:visible;visibility:visible;fill:none;stroke:#000000;stroke-width:5;stroke-linecap:square;stroke-linejoin:miter;stroke-miterlimit:4;stroke-dasharray:none;stroke-dashoffset:0;stroke-opacity:1;marker:none;enable-background:accumulate"
             d="m 303.05663,791.07806 170.17719,32.45407 78.95638,106.03273"
             id="path5818"
             inkscape:connector-curvature="0" />
        </g>
        <g
           id="g5342"
           transform="matrix(0.07478586,-0.01296835,0.01296852,0.07478527,13.553311,112.72045)">
          <circle
             transform="translate(559.58197,608.11355)"
             id="path4144-1-6-2"
             style="color:#000000;display:inline;overflow:visible;visibility:visible;fill:#000000;fill-opacity:1;fill-rule:nonzero;stroke:none;stroke-width:9;marker:none;enable-background:accumulate"
             cx="169.90291"
             cy="349.51456"
             r="69.579285" />
          <path
             inkscape:connector-curvature="0"
             d="m 746.47902,889.49994 c -2.49472,-0.62787 -4.97668,0.60881 -5.54011,2.84779 -0.56351,2.23906 1.01616,4.58788 3.51106,5.21584 l 14.82979,3.73206 c 2.49494,0.62784 4.91115,-0.71544 5.47458,-2.9545 0.56332,-2.23891 -0.95036,-4.48121 -3.44537,-5.10903 z m -0.007,2.97657 c 0.53459,0.12525 1.12742,0.3026 1.65739,0.41702 3.99553,0.99636 7.96091,1.99171 11.95121,3.00763 0.70911,0.0991 1.46776,0.39052 1.76954,1.07716 0.48245,0.87186 -0.62775,1.78924 -1.49532,1.51894 -4.60677,-1.00286 -9.22858,-2.22639 -13.80453,-3.38374 -0.90865,-0.32804 -2.195,-0.35348 -2.62061,-1.38161 -0.34136,-0.71275 0.22077,-1.45656 0.95055,-1.56575 0.54005,0.0319 1.0576,0.18302 1.59162,0.31031 z m 1.59693,0.41274 c -1.0601,-0.22802 -2.12584,-0.59268 -3.206,-0.65607 -0.72964,0.10924 -1.33585,0.84818 -0.99452,1.56093 0.4256,1.02799 1.75653,0.99434 2.66529,1.32258 4.57509,1.16052 9.13911,2.40378 13.74547,3.40672 0.86755,0.27076 1.98616,-0.6704 1.50361,-1.54226 -0.30167,-0.68703 -1.03424,-0.94279 -1.74336,-1.04217 -3.9903,-1.01588 -7.97647,-2.04909 -11.97092,-3.04958 z m -8.10916,30.11401 10.23793,2.57636 c 2.4948,0.62789 4.04957,2.93578 3.48621,5.17473 -0.56348,2.23899 -3.02545,3.53607 -5.5203,2.90822 l -10.23784,-2.57633 c -2.49486,-0.62774 -4.04983,-2.93581 -3.48636,-5.17482 0.56343,-2.23899 3.02553,-3.53596 5.52036,-2.90816 z m 0.48143,-18.07374 18.07427,4.5484 c 2.49494,0.62794 4.0498,2.93592 3.48629,5.1749 -0.56336,2.23894 -3.02542,3.53606 -5.52033,2.90811 l -18.07426,-4.54841 c -2.49487,-0.62776 -4.04967,-2.93577 -3.4862,-5.17486 0.56336,-2.23884 3.0255,-3.53596 5.52023,-2.90814 z m -25.95077,88.759 c -2.49486,-0.62777 -4.9109,0.7154 -5.47437,2.95449 -0.56354,2.23899 0.95015,4.48119 3.44518,5.10899 l 21.89619,5.5104 c 2.49487,0.6279 4.97665,-0.6087 5.5401,-2.8479 0.56347,-2.2389 -1.01609,-4.58773 -3.51105,-5.21569 z m -0.96635,2.73514 c 6.48661,1.66775 12.92284,3.40254 19.4108,5.06534 1.17212,0.5128 2.92775,0.2396 3.77421,1.2206 0.64622,0.7634 -0.11904,1.6527 -0.9274,1.8424 -6.15799,-1.5199 -12.2691,-3.0317 -18.4281,-4.5475 -1.65659,-0.61484 -3.80061,-0.4738 -5.14869,-1.65656 -0.75635,-0.68391 -0.007,-1.72658 0.90604,-1.75751 l 0.19588,-0.0409 0.21726,-0.12577 z m -0.38987,0.0947 c -0.91333,0.0308 -1.5969,1.09025 -0.84058,1.77427 1.3478,1.18271 3.42385,1.03694 5.08068,1.65195 6.15902,1.51552 12.31665,3.03642 18.47413,4.55652 0.80736,-0.1898 1.52491,-1.0218 0.87858,-1.7852 -0.84627,-0.9821 -2.537,-0.7725 -3.70908,-1.2853 -6.48784,-1.66264 -12.97427,-3.33006 -19.46103,-4.99753 l -0.21302,0.0431 -0.20954,0.0423 z m -1.08763,14.99784 17.06732,4.076 c 2.50222,0.5982 4.04977,2.9358 3.48631,5.1748 -0.56344,2.239 -3.01808,3.5059 -5.52026,2.9082 l -17.0674,-4.0759 c -2.50237,-0.597 -4.04955,-2.9358 -3.48622,-5.1748 0.5635,-2.239 3.01806,-3.5059 5.52025,-2.9083 z m 9.94301,-33.22318 14.82072,3.72969 c 2.4949,0.62794 4.04972,2.9358 3.48622,5.17489 -0.56342,2.23885 -3.02539,3.536 -5.5203,2.90815 l -14.82066,-3.72977 c -2.4949,-0.6278 -4.0497,-2.93573 -3.4862,-5.17471 0.56333,-2.2391 3.02539,-3.5361 5.52022,-2.90825 z m 14.29592,-99.82614 c -3.38332,-0.95852 -7.63414,0.31973 -10.86292,5.56943 -5.99616,9.90943 -10.12013,24.13639 -9.19672,38.39023 1.11434,17.19758 8.36802,34.07407 12.37169,39.30402 4.00364,5.23041 14.03637,19.4447 14.67837,30.13761 0.47414,7.89632 -2.85115,14.85353 -9.17389,29.82123 -7.03222,13.8568 6.74392,24.5525 14.0327,9.849 6.75158,-12.7326 12.29061,-26.7552 11.43121,-40.2653 -0.97212,-15.28286 -13.03912,-35.35632 -17.15211,-41.31835 -4.11281,-5.96283 -9.24539,-17.52735 -9.5599,-30.20363 -0.28625,-11.5382 3.91098,-24.26977 8.49728,-30.08111 2.30082,-5.06301 -0.71537,-9.96995 -5.06543,-11.20245 z m -1.18375,2.86113 c 1.72762,0.27387 2.95538,1.64804 3.45743,3.21659 1.30958,3.77274 -2.59223,6.43231 -3.56704,9.75214 -3.60417,9.44529 -6.11755,19.71061 -4.92597,29.89661 0.8231,11.49504 6.33618,21.96598 12.33386,31.7139 7.33774,12.60818 14.84168,26.4662 14.01549,41.25127 -1.10483,10.85918 -4.96619,21.35058 -10.10507,30.94118 -1.54408,2.976 -3.52766,7.5223 -7.65327,7.1895 -3.08109,-1.1653 -3.70349,-5.3447 -3.04659,-8.1675 3.06214,-10.5962 9.42593,-20.3528 10.62489,-31.5325 0.77224,-12.82286 -7.39862,-23.90237 -14.00222,-34.29919 -5.26339,-7.49627 -8.43454,-16.0313 -10.44812,-24.83138 -4.59112,-16.17173 -2.60881,-33.67609 5.05179,-48.45839 1.73402,-2.93245 4.17935,-7.18937 8.26556,-6.67432 z m 41.56353,6.92707 c -4.42895,-0.94484 -9.53904,1.98149 -10.13466,7.46765 1.01375,7.20101 -1.87932,20.25745 -8.06094,30.1908 -5.18636,8.33435 -11.31295,14.42137 -17.44362,18.45607 2.98205,5.10123 6.10283,9.84936 8.46863,14.21142 7.08449,-5.21382 15.3133,-12.70037 22.0286,-22.6137 8.13339,-12.00673 11.88474,-26.40676 11.74772,-37.83758 -0.11808,-6.07966 -3.16037,-9.14044 -6.60527,-9.87544 z m -53.43619,66.53179 c -8.8349,5.46848 -19.04693,12.38418 -24.91113,21.06224 -7.69535,11.38834 -9.99018,26.21739 -10.64595,40.46299 -1.19872,16.2136 16.3178,13.303 17.30583,-2.0529 2.17866,-15.9956 2.78161,-23.63461 7.25482,-30.30408 4.3618,-6.50329 11.49934,-12.27193 18.80736,-16.0371 -3.21898,-4.50245 -5.81542,-8.13361 -7.81163,-13.13019 z"
             style="fill:#ffffff;fill-opacity:1"
             id="path4161" />
        </g>
        <g
           id="g5354"
           transform="matrix(0.05802547,-0.01006199,0.01006212,0.05802501,50.644486,139.42709)">
          <circle
             transform="translate(462.78318,-93.268878)"
             id="path4144-1-6-19"
             style="color:#000000;display:inline;overflow:visible;visibility:visible;fill:#000000;fill-opacity:1;fill-rule:nonzero;stroke:none;stroke-width:9;marker:none;enable-background:accumulate"
             cx="169.90291"
             cy="349.51456"
             r="69.579285" />
          <path
             style="fill:#ffffff;fill-rule:evenodd"
             inkscape:connector-curvature="0"
             d="m 634.17609,208.31308 c -2.9241,0.11182 -6.87156,1.73771 -9.96823,8.40907 -10.02696,-8.90547 -18.00487,1.49891 -18.02986,1.54771 -4.24138,8.27806 3.88891,20.36764 16.01832,28.63161 -14.67732,-4.83606 -27.86947,-3.42024 -31.60124,5.3571 -0.17298,0.40661 -3.75706,8.79902 8.43784,13.56225 -8.29368,10.53323 2.5899,17.84522 2.64024,17.86728 8.30304,3.61956 19.49733,-4.64645 27.02656,-16.6859 -5.01375,14.32139 -3.85034,27.2771 4.74381,31.18104 0.40323,0.18315 8.70643,3.97191 13.78901,-8.07459 10.33539,8.54698 17.93406,-2.12159 17.95743,-2.17129 3.9631,-8.45849 -4.68003,-20.33708 -17.18066,-28.16739 14.36181,5.19169 27.42572,4.18683 31.42538,-4.38713 0.18699,-0.4009 4.05014,-8.65764 -7.97288,-13.83687 8.65267,-10.24144 -1.96582,-17.93037 -2.01533,-17.95405 -7.84018,-3.74436 -18.7221,3.34606 -26.60417,14.32218 4.4711,-13.12362 3.36975,-24.82467 -4.57001,-28.77364 -0.17347,-0.0863 -1.82244,-0.9145 -4.09675,-0.82753 z"
             id="path14007" />
        </g>
        <g
           id="g5440"
           transform="matrix(0.04979808,0.0103612,-0.01036124,0.04979767,43.353339,170.39556)">
          <circle
             style="color:#000000;display:inline;overflow:visible;visibility:visible;fill:#000000;fill-opacity:1;fill-rule:nonzero;stroke:none;stroke-width:9;marker:none;enable-background:accumulate"
             id="path4144-1-6-50"
             transform="translate(191.03127,-165.51755)"
             cx="169.90291"
             cy="349.51456"
             r="69.579285" />
          <path
             id="path4028"
             transform="translate(0,52.362183)"
             d="m 417.21875,65.0625 c -0.69804,0.01938 -1.2909,0.22128 -1.6875,0.625 -1.58638,1.61485 0.26151,5.8589 4.125,9.46875 3.86364,3.61086 8.28852,5.23987 9.875,3.625 1.58632,-1.61487 -0.26147,-5.85891 -4.125,-9.46875 -2.89766,-2.706945 -6.09337,-4.308153 -8.1875,-4.25 z m -4.09375,1.625 c -0.13671,0.0968 -0.25503,0.22158 -0.375,0.34375 L 356.78125,124 c -1.29967,1.32305 -1.01776,3.62145 0.625,5.15625 L 367,138.125 c 1.64268,1.53483 4.04409,1.69805 5.34375,0.375 l 55.9375,-56.9375 c 0.11688,-0.11895 0.2209,-0.27281 0.3125,-0.40625 -1.98838,1.3114 -6.57611,-0.49826 -10.625,-4.28125 -4.05663,-3.79025 -6.11695,-8.19932 -4.84375,-10.1875 z m 8.875,6 c 0.31583,0.295548 0.63386,0.598747 0.96875,0.875 -0.3286,-0.272676 -0.65873,-0.583681 -0.96875,-0.875 z m -9.90625,2 c 0.70682,1.02669 1.49664,2.014527 2.34375,2.9375 -0.8471,-0.923145 -1.63713,-1.910605 -2.34375,-2.9375 z m 14,0.71875 c 0.0484,0.128616 0.0855,0.268319 0.0937,0.375 -0.0124,-0.0069 -0.0189,-0.02429 -0.0312,-0.03125 -0.008,-0.106683 -0.0141,-0.215248 -0.0625,-0.34375 z M 421.8125,83.375 c 0.008,0.0043 0.0233,-0.0043 0.0312,0 -4.31003,4.350205 -8.61942,8.716861 -12.90625,13.09375 4.28658,-4.377083 8.56482,-8.743395 12.875,-13.09375 z m -66.71875,42.34375 -8.09375,8.25 c -1.2998,1.32305 -0.77904,3.38718 0.59375,5.15625 2.71408,3.49736 5.78054,6.62277 9.625,8.96875 1.92849,1.17681 4.01277,1.69803 5.3125,0.375 L 370.625,140.25 c -1.2998,1.32304 -3.66978,1.12854 -5.3125,-0.40625 l -9.625,-8.96875 c -1.64257,-1.53481 -1.8935,-3.83322 -0.59375,-5.15625 z m 5.15625,1.625 c 0.28942,0.33553 0.59774,0.64527 0.90625,0.96875 -0.31348,-0.32869 -0.61231,-0.62768 -0.90625,-0.96875 z m -7.34375,5.28125 c 0.14476,0.006 0.29091,0.07 0.4375,0.15625 -0.147,-0.0863 -0.29251,-0.15058 -0.4375,-0.15625 z m -0.4375,0.125 c 0.009,-0.006 0.0226,0.006 0.0312,0 -0.0818,0.14349 -0.19636,0.30003 -0.3125,0.4375 0.11639,-0.13748 0.19947,-0.294 0.28125,-0.4375 z M 350.5,134.78125 c -0.39086,0.41152 -0.68462,0.85802 -0.71875,1.34375 0.0341,-0.48573 0.3264,-0.93221 0.71875,-1.34375 z m 0.21875,2.84375 c 0.66689,0.98138 1.43353,1.90807 2.25,2.78125 -0.82226,-0.87741 -1.57909,-1.79413 -2.25,-2.78125 z m -5.78125,0.84375 c -0.0311,0.0361 -0.0652,0.086 -0.0937,0.125 l -8.875,12.09375 c -0.91743,1.24938 -0.84642,3.02524 0.53125,4.3125 l 4.9375,4.625 c 1.37773,1.28725 3.1969,1.25993 4.4375,0.3125 l 12,-9.15625 c 0.0388,-0.0299 0.0895,-0.0617 0.125,-0.0937 -0.76019,-0.17378 -1.37627,-0.76217 -2.15625,-1.1875 -4.00437,-2.18383 -7.0345,-5.34634 -9.625,-8.96875 -0.50875,-0.71135 -1.06952,-1.3329 -1.28125,-2.0625 z M 352.34375,151 c -2.52617,1.7978 -4.93873,3.98192 -7.5625,5.59375 2.61791,-1.60773 5.04159,-3.79786 7.5625,-5.59375 z m -12.40625,2.8125 c 1.18265,1.1966 2.47543,2.30678 3.6875,3.4375 -1.21202,-1.13074 -2.50733,-2.2399 -3.6875,-3.4375 z m -4.71875,2.71875 -8.40625,8.53125 c -2.30896,2.35862 8.76131,0.30018 9.46875,-0.4375 l 3.65625,-3.6875 z"
             style="fill:#ffffff;fill-opacity:1"
             inkscape:connector-curvature="0" />
        </g>
        <g
           id="g5374"
           transform="matrix(0.05512432,-0.00955891,0.00955904,0.05512389,44.088221,125.04665)">
          <g
             id="g5452"
             transform="translate(-626.85467,-133.27194)">
            <circle
               style="color:#000000;display:inline;overflow:visible;visibility:visible;fill:#000000;fill-opacity:1;fill-rule:nonzero;stroke:none;stroke-width:9;marker:none;enable-background:accumulate"
               id="path4144-1-6-11"
               transform="translate(658.57606,172.10329)"
               cx="169.90291"
               cy="349.51456"
               r="69.579285" />
            <path
               sodipodi:nodetypes="cccccccccccsccccccc"
               id="path3279"
               d="m 835.69779,472.29925 c -7.38558,-1.81297 -15.84241,0.50116 -23.95576,9.89455 0.62059,-2.0266 -6.35111,-9.3977 -11.65768,0.22874 -19.02941,1.56076 -18.40983,21.75222 -14.72845,30.51386 -10.30072,21.74083 3.5,31.94541 14.95189,29.30179 2.51654,6.90995 4.79148,16.1834 3.17327,23.87892 -2.74597,13.06907 -8.88621,22.57946 -6.289,23.25471 l 16.35934,4.25263 c 3.92942,-19.83237 9.78042,-35.8499 12.69728,-44.01572 2.72443,-0.85999 5.65397,-1.80986 8.96626,-2.38327 15.46301,6.75943 21.52294,3.428 21.66287,-5.93553 7.05789,3.43429 16.69237,-5.04898 15.77413,-21.20328 -0.28316,-4.98151 -2.39895,-12.28202 -7.2532,-16.19489 2.94057,-4.7454 2.16246,-20.29978 -12.17899,-16.69643 -3.82224,-7.13862 -10.13244,-13.08252 -17.519,-14.89554 z m -26.61262,73.59744 c 3.14717,2.38135 6.01499,3.2319 8.87302,3.23662 -2.5585,5.46237 -9.2179,17.01005 -8.87302,-3.23662 z"
               inkscape:connector-curvature="0"
               style="fill:#ffffff" />
          </g>
        </g>
        <g
           id="g5421"
           transform="matrix(0.05327698,-0.00923857,0.00923869,0.05327655,26.998291,127.04587)">
          <circle
             transform="translate(540.45308,60.452804)"
             id="path4144-1-6-38"
             style="color:#000000;display:inline;overflow:visible;visibility:visible;fill:#000000;fill-opacity:1;fill-rule:nonzero;stroke:none;stroke-width:9;marker:none;enable-background:accumulate"
             cx="169.90291"
             cy="349.51456"
             r="69.579285" />
          <path
             style="fill:#ffffff;fill-rule:evenodd"
             inkscape:connector-curvature="0"
             d="m 730.54012,361.62489 -3.00454,6.67506 -2.53588,-4.10256 -2.69675,1.79932 c 1.54288,2.48475 2.7628,4.80095 3.09704,5.18499 l -3.66241,7.8099 -2.89067,-5.03503 2.19933,-2.99199 -3.83046,-2.73932 -0.94816,1.28292 -0.96353,-1.67831 -4.11548,2.2462 0.76395,1.35127 -1.03412,-0.0323 -0.20646,4.66418 4.01958,0.14354 4.62307,8.10304 -3.06332,6.83804 -0.71536,-1.27911 -4.16404,2.17404 2.46708,4.50077 -3.28345,7.29328 -3.74943,-4.93232 2.43697,-5.51542 -4.31475,-1.86272 -1.3897,3.12903 -4.41162,-5.78894 4.84879,-10.59928 4.8843,-0.85653 -0.85223,-4.57666 -1.70782,0.28204 1.37009,-2.9709 -4.31941,-1.90114 -1.49232,3.25831 -1.04208,-1.35702 -3.76978,2.78985 2.57089,3.43572 -3.75794,8.24657 -8.44335,-11.07734 2.34743,-7.8052 -4.48616,-1.33539 -1.36738,4.56895 -4.02714,-5.25015 c -1.2566,0.92993 -2.51323,1.85984 -3.76979,2.78986 l 4.45544,5.82265 -4.88816,0.1942 0.22289,4.61296 8.12257,-0.30775 7.15821,9.35949 -5.85894,0.0372 -1.61491,-3.39395 -4.27122,1.95289 0.70043,1.47583 -1.98057,0.004 0.0276,4.63627 1.58541,0.006 -0.56224,0.88593 3.9918,2.44712 2.11209,-3.37141 9.42482,-0.0345 4.55287,5.96685 -1.46835,-0.0195 -0.0511,4.64565 5.122,0.0897 5.17127,6.78983 -6.64501,0.71601 -3.62278,-4.86947 -3.81855,2.71762 2.00602,2.72337 -7.26486,0.82911 -6.85538,-9.47384 1.71866,-4.61106 -4.44182,-1.61362 -0.59253,1.5913 -1.91833,-2.65588 -3.86229,2.68392 2.15208,2.93987 -1.75638,0.20986 0.53985,4.61392 4.3374,-0.47932 5.3264,7.39504 -10.63421,1.02373 -5.66027,-5.95157 -3.4484,3.1411 3.28815,3.46685 -6.60136,0.7498 0.53997,4.61393 7.38189,-0.8431 -2.31818,4.25371 4.15805,2.19339 3.82932,-7.04673 8.48266,-0.80556 -2.93882,4.99083 -3.77018,-0.36828 -0.45033,4.61554 1.60462,0.15909 -0.97785,1.67639 4.06021,2.36101 0.78236,-1.34107 0.5109,0.91356 4.20321,-2.17861 -1.90267,-3.47659 4.738,-8.01296 7.54289,-0.82329 -0.75781,1.22119 4.03081,2.44251 2.66471,-4.33408 6.09389,-0.68921 -2.79968,6.72853 -6.08906,0.72756 0.57903,4.60937 3.43492,-0.41042 -2.80453,6.69 -11.76317,1.28825 -3.23879,-3.70687 -3.58476,3.00147 1.11532,1.30935 -3.28348,0.35367 0.54001,4.61393 3.63476,-0.39567 -0.67053,1.60062 4.34405,1.78126 1.67871,-3.98246 9.18709,-0.98043 -4.4534,8.97986 -8.076,1.93962 1.15961,4.50117 4.68968,-1.14524 -2.52552,6.07207 4.34401,1.7813 2.8387,-6.73311 2.6044,4.01646 3.96459,-2.50116 -4.41036,-6.72472 3.59677,-6.96706 3.03705,4.93945 -2.15063,3.06393 3.89398,2.61472 0.9043,-1.31665 1.0464,1.70737 4.05727,-2.39511 -0.80316,-1.34665 1.03418,0.0325 0.0894,-4.65024 -4.01467,-0.1052 -4.83789,-7.92129 2.89264,-6.9346 0.75435,1.27439 4.11069,-2.28463 -2.57444,-4.40973 2.96112,-7.02079 4.40668,5.75071 -2.13871,5.05108 4.34407,1.78134 1.10599,-2.54943 4.45534,5.82265 -4.40917,10.00106 -4.87474,0.93329 0.88635,4.53384 1.74193,-0.32542 -1.36025,3.04771 4.34887,1.81959 1.44851,-3.29192 1.08109,1.35231 3.72607,-2.8232 -2.64902,-3.42637 3.33252,-7.53304 8.62357,11.2509 -1.96064,6.78428 4.5592,1.28761 0.99503,-3.43296 2.89244,3.78725 3.76492,-2.82809 -4.17315,-5.46663 5.94693,-0.28174 -0.22764,-4.65148 -8.89366,0.47793 c -0.0795,-0.002 -0.15596,0.0185 -0.23422,0.028 l -7.19697,-9.35493 6.76138,-0.10609 1.6148,3.39396 4.26152,-2.02975 -0.6956,-1.43737 1.9757,-0.0412 -0.0667,-4.63143 -1.61971,0.0376 0.55741,-0.92433 -4.06508,-2.39939 -2.06818,3.40513 -10.16147,0.16154 -4.54791,-5.92858 2.14152,0.0169 0.0112,-4.64083 -5.75137,-0.0536 -4.26563,-5.57252 6.92858,-0.98382 3.76417,4.73563 3.72611,-2.82356 -2.1232,-2.7094 7.27964,-1.02576 7.14827,9.28269 -1.59665,4.63538 4.46639,1.49368 0.54371,-1.6634 2.03554,2.64191 3.76977,-2.78986 -2.22546,-2.8922 1.71265,-0.24331 -0.65699,-4.59997 -4.323,0.59387 -5.54148,-7.21357 10.0599,-2.07518 5.84105,5.8132 3.3559,-3.24704 -3.40023,-3.41462 6.57724,-0.94184 -0.69603,-4.59543 -7.27958,1.0258 2.16198,-4.23522 -4.26063,-2.0641 -3.58066,7.13389 -7.99611,1.78959 2.81209,-5.05341 3.795,0.24828 0.28939,-4.63502 -1.63892,-0.11608 0.97315,-1.71477 -4.16295,-2.23174 -0.7775,1.3795 -0.51098,-0.91365 -4.11064,2.28462 2.01493,3.42409 -4.47986,8.17692 -7.54816,1.09681 0.74813,-1.29802 -4.09433,-2.31788 -2.57217,4.44001 -8.09457,1.16214 3.87043,-8.61107 6.06464,-0.60773 -0.46195,-4.62332 -3.40533,0.32894 2.97509,-6.59344 11.76264,-0.9766 3.12642,3.75908 3.67237,-2.93407 -1.07625,-1.31396 3.29316,-0.27659 -0.42289,-4.62816 -3.68354,0.32323 0.71436,-1.56692 -4.28519,-1.94341 -1.76166,3.95334 -9.17686,0.74562 4.03075,-8.64527 7.93992,-1.46662 -0.50016,-3.67458 -5.8993,1.3832 3.01551,-6.52089 -3.48261,-1.7042 v 0 0 10e-6 z"
             id="path1074" />
        </g>
        <g
           id="g5358"
           transform="matrix(0.05281205,-0.00915795,0.00915807,0.05281163,45.702136,130.66761)">
          <circle
             transform="translate(409.38512,155.92206)"
             id="path4144-1-6-33"
             style="color:#000000;display:inline;overflow:visible;visibility:visible;fill:#000000;fill-opacity:1;fill-rule:nonzero;stroke:none;stroke-width:9;marker:none;enable-background:accumulate"
             cx="169.90291"
             cy="349.51456"
             r="69.579285" />
          <path
             inkscape:connector-curvature="0"
             d="m 629.51282,515.17866 -24.6858,19.25955 c 0,0 0.69549,-12.03134 -0.84501,-32.64485 3.22546,7.633 8.63958,9.18808 8.63958,9.18808 24.35225,-24.19078 -7.19597,-57.0408 -25.76799,-20.78342 1.43174,-6.7868 2.17906,-10.57818 2.17906,-10.57818 0,0 2.13893,-0.46687 -7.99193,1.54392 34.39341,-37.80287 65.67699,9.05605 39.61894,34.20815 l 8.85387,-0.19358 z m -75.17111,32.77032 -7.49398,-21.43961 23.98768,9.29856 c 0,0 -7.61526,-0.0221 -9.98139,1.48359 2.73308,6.59373 6.86249,10.30749 10.49587,16.26414 6.30517,-8.21334 13.29523,-13.65159 20.13099,-28.39318 -0.98332,9.13626 -2.05322,13.52765 -2.05322,13.52765 0,0 8.14782,-1.09833 11.77858,-2.0766 -10.32961,6.44787 -21.68167,17.13787 -31.83603,26.9756 -4.06031,-9.07168 -7.08745,-12.39836 -12.21244,-22.66608 l -2.81645,7.02518 z m 10.41606,-85.81459 2.6139,-7.19635 c 7.87937,10.85854 9.73024,14.46077 13.72167,22.71332 l -25.63172,2.12999 c 6.44612,-6.93332 12.00017,-9.5115 12.00017,-9.5115 -7.98322,-8.47742 -47.32434,4.2867 -14.48032,48.55056 -3.50318,-1.33226 -6.70731,-2.56462 -8.38495,-3.42931 -0.31488,2.9711 0.21976,4.62156 -0.0112,8.95864 -39.35557,-58.2227 14.4751,-66.99751 20.17135,-62.21472 z"
             style="fill:#ffffff"
             id="path2909-1" />
        </g>
        <g
           id="g5191"
           transform="matrix(0.05531714,0.03308258,-0.03308279,0.05531666,85.633231,136.57323)">
          <circle
             transform="translate(108.41424,-107.83199)"
             id="path4144-1"
             style="color:#000000;display:inline;overflow:visible;visibility:visible;fill:#000000;fill-opacity:1;fill-rule:nonzero;stroke:none;stroke-width:9;marker:none;enable-background:accumulate"
             cx="169.90291"
             cy="349.51456"
             r="69.579285" />
          <path
             style="fill:#ffffff"
             inkscape:connector-curvature="0"
             d="m 263.92038,194.51035 c -1.32677,0.23024 -1.88217,2.2395 -2.07942,3.28681 -0.24277,1.28897 0.37106,4.48987 2.74175,4.83136 l 1.92882,4.1379 -0.34974,2.81171 -4.71909,24.24839 c -3.9127,-1.95249 -8.39932,-2.87145 -13.07368,-2.43221 -13.34056,1.25356 -23.14355,13.0902 -21.8901,26.43118 1.2535,13.34102 13.08874,23.13315 26.42926,21.87961 13.34055,-1.25353 23.1334,-13.07823 21.8799,-26.41897 -0.63042,-6.70957 -3.93201,-12.52306 -8.7584,-16.48672 l 0.91032,-4.68346 28.26035,15.71462 c -0.50268,1.38543 -0.70995,2.89673 -0.56296,4.46127 0.53155,5.6573 5.54924,9.81315 11.20633,9.28161 0.70717,-0.0664 1.39498,-0.20548 2.04891,-0.40458 l 1.08482,1.44934 -0.60843,0.0572 0.51659,5.49824 3.05331,-0.28687 c 0.54024,1.73766 3.87581,1.41846 4.49119,-0.42199 l 2.54435,-0.23913 -0.4979,-5.29908 -3.97137,0.37316 -2.00907,-4.04101 c 1.45487,-1.60016 2.40437,-3.65498 2.62684,-5.89392 l 3.41712,-0.33246 c 2.52847,11.8768 13.61299,20.22695 25.99709,19.0633 13.34054,-1.25354 23.13339,-13.07821 21.87995,-26.41895 -1.25354,-13.341 -13.07885,-23.14539 -26.41911,-21.89186 -3.22587,0.3031 -6.24107,1.23622 -8.94705,2.6487 l -9.33239,-14.40151 -1.73287,-0.86391 1.21997,-3.40691 c 11.78372,-2.32731 9.9611,-7.78788 10.05945,-13.37781 l -25.37708,2.38452 c -6.15849,0.24749 -5.41386,6.36546 -2.0082,8.20191 l 11.82252,2.18136 -1.15346,4.11499 -43.76742,3.71078 0.77787,-4.90555 c 0.0743,-0.46969 0.39556,-1.85503 0.16813,-3.65169 -0.2274,-1.79683 -1.20672,-3.88106 -0.81208,-4.03312 0.71219,-0.27446 6.64128,-0.70219 6.64128,-0.70219 l -0.71182,-6.5067 -11.88384,0.49168 c -0.39359,-0.17012 -0.73545,-0.21188 -1.04167,-0.15869 z m 5.75274,25.11712 43.03932,-3.7317 -7.222,25.16457 c -0.5159,-0.03 -1.04085,-0.0251 -1.5712,0.025 -0.59943,0.0563 -1.18239,0.16763 -1.74434,0.32018 l -1.5114,-3.13929 1.31543,0.22237 -0.50724,-5.3985 -4.07078,0.38251 c -0.9866,-1.50935 -3.36723,-1.13592 -3.96247,0.46843 l -2.24562,0.211 0.48851,5.19937 3.16211,-0.19665 1.88274,3.52844 -28.75715,-16.01378 z m 48.99377,-3.77783 8.03622,12.481 c -5.34327,4.47676 -8.68612,11.18416 -8.70488,18.52945 l -3.69497,0.34719 c -0.84853,-1.93878 -2.26561,-3.55608 -4.0299,-4.64338 z m -69.66326,22.3154 c 4.03496,-0.37914 7.87649,0.65029 11.04336,2.67871 l -1.72385,5.7644 c -1.20116,1.80668 -2.06619,2.88161 -3.34945,3.70569 -3.00199,1.9275 -3.36675,0.0483 -4.67506,0.54003 -4.52888,1.70197 -1.58987,5.88939 0.98187,6.08089 4.75846,0.065 6.50794,-1.91746 9.56741,-5.24494 1.32329,-1.45866 2.57156,-3.38134 3.59684,-6.6838 l 0.0119,-0.0568 0.0119,-0.0569 c 1.95186,2.52678 3.23935,5.61448 3.56017,9.02897 0.90251,9.60529 -6.1508,18.12214 -15.75605,19.02472 -9.60499,0.90249 -18.13243,-6.15003 -19.03497,-15.75561 -0.90251,-9.60531 6.16202,-18.12319 15.76699,-19.02572 z m 91.63021,-8.60999 c 9.60501,-0.90252 18.12151,6.15102 19.02405,15.75662 0.90249,9.60529 -6.1508,18.12214 -15.75605,19.02468 -8.65049,0.81285 -16.4301,-4.82064 -18.54967,-12.96638 l 15.73636,-1.53441 c 3.23348,0.0999 3.95037,-1.74557 3.0517,-4.81776 l -9.28353,-13.88171 c 1.77306,-0.83005 3.71676,-1.38717 5.77746,-1.58079 z m -10.20764,4.55292 7.03039,10.92375 -12.64426,1.18811 c 0.19367,-4.73176 2.29117,-9.04787 5.61387,-12.11186 z"
             id="path3775-7" />
        </g>
        <g
           id="g5448"
           transform="matrix(0.07333848,-0.01271736,0.01271753,0.07333789,9.501113,100.43933)">
          <circle
             transform="translate(290.85225,484.32914)"
             id="path4144-1-6-6"
             style="color:#000000;display:inline;overflow:visible;visibility:visible;fill:#000000;fill-opacity:1;fill-rule:nonzero;stroke:none;stroke-width:9;marker:none;enable-background:accumulate"
             cx="169.90291"
             cy="349.51456"
             r="69.579285" />
          <path
             inkscape:connector-curvature="0"
             d="m 512.5498,845.80549 c -0.36497,7.26824 -6.22103,12.88326 -13.08056,12.54069 -6.859,-0.34231 -12.12418,-6.51228 -11.7593,-13.78107 0.3649,-7.26831 6.22095,-12.88336 13.08056,-12.54078 6.85901,0.34237 12.12418,6.51236 11.7593,13.78116 z m -84.11289,-4.374 c -0.36488,7.26817 -6.22093,12.88325 -13.08048,12.54068 -6.85903,-0.34233 -12.12416,-6.51227 -11.75928,-13.78113 0.36488,-7.26825 6.22098,-12.88327 13.08046,-12.54072 6.85909,0.34233 12.12421,6.51235 11.7593,13.78117 z m 24.03777,-47.25491 c -18.76216,-0.72988 -38.10727,7.63637 -42.06096,24.94955 -6.97079,2.50492 -12.05195,9.31115 -12.46524,17.54487 0.27527,4.85177 3.54813,2.81962 5.64738,3.48702 0.37903,-7.25375 6.23546,-12.85007 13.08533,-12.50806 6.85913,0.34269 12.12331,6.51014 11.75851,13.77865 -0.0699,1.39097 -0.34717,2.72141 -0.78789,3.96103 0.12159,-0.24577 0.2434,-0.49385 0.35068,-0.74842 17.28467,0.96953 29.44531,1.58004 59.92141,3.15593 -0.19234,-1.04149 -0.27385,-2.12124 -0.21815,-3.23059 0.3649,-7.26827 6.22773,-12.88041 13.0869,-12.5379 6.85907,0.34262 12.12333,6.51007 11.75852,13.77864 -0.038,0.75184 -0.13128,1.48256 -0.28167,2.19432 0.31168,-0.93897 0.52444,-1.92553 0.63269,-2.95014 -0.0148,0.65247 -0.0467,1.32472 -0.11568,2.01678 l 0.86927,0.207 c 0.91613,-2.18124 3.72012,-7.53256 3.66919,-11.90739 -0.0509,-4.37488 -2.66328,-8.21299 -6.21168,-10.66094 -5.63808,-3.40585 -11.92056,-4.71416 -18.24004,-5.99822 -1.9651,-0.53596 -2.55929,-0.67508 -3.08798,-1.26303 -4.64841,-14.90163 -20.75474,-22.62782 -37.30986,-23.26901 z m -7.38846,12.12215 c 5.62266,0.2809 8.94302,0.44658 12.5527,0.62686 4.46031,1.28448 6.7279,3.85569 7.60725,6.17983 l 10.29449,0.75952 c 1.08732,0.0543 1.93709,0.61913 1.90479,1.26249 l -0.55102,10.97756 c -0.0331,0.64336 -0.93433,1.12079 -2.02164,1.06651 l -10.3187,-0.27729 c -1.10755,2.22493 -3.62156,4.56478 -8.18848,5.39837 -3.60962,-0.17995 -6.93,-0.34598 -12.55269,-0.62683 l 0.1743,-3.47127 -10.59688,-0.52914 c -1.08738,-0.0543 -1.93706,-0.6192 -1.90477,-1.26254 0.033,-0.64334 0.93393,-1.11337 2.02128,-1.05908 l 10.59692,0.52919 0.69172,-13.78122 -10.59689,-0.52919 c -1.08738,-0.0542 -1.93744,-0.61182 -1.90512,-1.25512 0.033,-0.64331 0.93433,-1.1208 2.02164,-1.06648 l 10.5969,0.52916 0.17429,-3.4713 z"
             style="fill:#ffffff;stroke:#000000;stroke-width:3.38906074"
             id="path3766" />
        </g>
        <g
           id="g5366"
           transform="matrix(0.05558668,-0.00963909,0.00963922,0.05558624,-0.85178584,138.98222)">
          <circle
             transform="translate(698.5035,407.56938)"
             id="path4144-1-6-9"
             style="color:#000000;display:inline;overflow:visible;visibility:visible;fill:#000000;fill-opacity:1;fill-rule:nonzero;stroke:none;stroke-width:9;marker:none;enable-background:accumulate"
             cx="169.90291"
             cy="349.51456"
             r="69.579285" />
          <path
             inkscape:connector-curvature="0"
             id="rect3874"
             d="m 905.98435,775.42588 -4.26481,-44.98122 c 0,0 -8.66738,-5.39427 -14.43039,-6.825 -5.76313,-1.43084 -5.74502,-0.92166 -24.52881,0.35567 -18.7837,1.27736 -25.60351,-3.14223 -26.71836,-5.61716 -0.0966,0.1603 4.2976,45.9744 4.2976,45.9744 9.59873,3.89681 12.87053,3.61037 24.70477,2.49347 28.29262,-2.67058 29.98522,6.00914 40.93778,8.60073 z m -72.92671,-57.39823 c 0.2888,-0.39846 0.5827,-0.52844 0.88778,-0.0821 0.0787,0.11523 0.18066,0.12742 0.19693,0.30498 l 6.99294,76.36203 c -0.071,1.01851 -0.68095,1.22733 -1.21478,0.11232 l -6.99112,-76.36171 c -0.0164,-0.17759 0.0608,-0.23959 0.12996,-0.33513 z"
             style="fill:#ffffff;stroke:#ffffff;stroke-width:6.61351442;stroke-opacity:1" />
        </g>
        <g
           id="g5425"
           transform="matrix(0.04562461,-0.0079116,0.00791171,0.04562425,42.509771,97.062116)">
          <circle
             transform="translate(139.15858,518.38161)"
             id="path4144-1-6-7"
             style="color:#000000;display:inline;overflow:visible;visibility:visible;fill:#000000;fill-opacity:1;fill-rule:nonzero;stroke:none;stroke-width:9;marker:none;enable-background:accumulate"
             cx="169.90291"
             cy="349.51456"
             r="69.579285" />
          <path
             sodipodi:nodetypes="cccsscccsccccc"
             style="fill:#ffffff;fill-opacity:1"
             inkscape:connector-curvature="0"
             d="m 308.10272,818.93001 c -5.86749,0.16313 -0.62271,6.57872 3.48654,16.16188 -15.48498,2.52122 -27.9746,10.62435 -33.11627,21.0356 -5.71847,-12.29406 -19.56245,-20.9718 -26.39291,-20.78187 -8.62867,0.23988 6.77011,13.99564 7.25615,31.47703 0.486,17.48061 -14.12478,32.06687 -5.49611,31.82704 6.68498,-0.18594 19.61609,-8.89048 24.87789,-20.9307 6.16083,11.69112 21.87492,19.92482 40.37167,20.18327 -3.69453,9.79114 -11.15984,14.05014 -4.57698,13.86707 7.19586,-0.20018 22.24834,-5.65495 26.76783,-17.59859 5.89804,-1.18327 24.27067,-5.4435 24.57898,-29.32785 -0.40773,-14.66481 -14.79299,-26.62068 -33.98864,-29.76012 -6.59415,-9.78313 -17.83274,-16.31561 -23.76777,-16.15063 z"
             id="path3581" />
        </g>
        <g
           id="g5362"
           transform="matrix(0.05154359,-0.00893799,0.00893811,0.05154318,44.255186,157.04981)">
          <circle
             transform="translate(271.84466,236.82821)"
             id="path4144-1-6-3"
             style="color:#000000;display:inline;overflow:visible;visibility:visible;fill:#000000;fill-opacity:1;fill-rule:nonzero;stroke:none;stroke-width:9;marker:none;enable-background:accumulate"
             cx="169.90291"
             cy="349.51456"
             r="69.579285" />
          <path
             inkscape:connector-curvature="0"
             d="m 404.57934,569.48461 c 0.77226,2.29041 0.0905,4.70515 -1.52265,5.3934 -1.61314,0.68821 -3.54701,-0.61046 -4.31928,-2.9009 -0.77229,-2.29034 -0.0906,-4.7051 1.52262,-5.39344 1.61316,-0.68821 3.54703,0.61054 4.31931,2.90094 z m 4.8275,-10.6999 c 1.02785,3.04826 0.18172,6.23595 -1.88979,7.11973 -2.0716,0.884 -4.58415,-0.87059 -5.61201,-3.91891 -1.02783,-3.04821 -0.18171,-6.2359 1.88982,-7.1198 2.07157,-0.88386 4.58412,0.87071 5.61198,3.91898 z m 8.0936,-10.48967 c 1.10777,3.28516 0.0155,6.79724 -2.43855,7.84446 -2.45476,1.04728 -5.34248,-0.76689 -6.45028,-4.05204 -1.10776,-3.28513 -0.0159,-6.7972 2.43863,-7.84448 2.45467,-1.04735 5.3424,0.76682 6.4502,4.05206 z m 9.2679,-6.83291 c 1.26753,3.75887 0.55828,7.54716 -1.58403,8.46123 -2.14251,0.91408 -4.90669,-1.392 -6.17418,-5.15084 -1.26749,-3.7589 -0.55815,-7.54702 1.58421,-8.46128 2.14244,-0.91411 4.9066,1.39208 6.174,5.15089 z m 15.91875,-5.8071 c 2.1409,5.83785 1.16473,11.5746 -2.18027,12.81327 -3.3451,1.23879 -7.79239,-2.48942 -9.93326,-8.32733 -2.141,-5.83784 -1.16472,-11.57455 2.18032,-12.81327 3.34508,-1.23883 7.79243,2.48946 9.93321,8.32733 z m -31.20475,46.77296 c -4.86243,-11.56325 3.44194,-21.81213 11.95404,-27.27205 8.69226,-5.57486 19.21036,-4.05229 26.48372,5.72771 8.04753,10.82206 -3.30807,22.51895 1.74524,35.5335 3.78163,9.73919 22.53688,17.89781 23.74731,28.26397 0.55807,4.77474 -3.18053,9.05241 -6.60196,10.95318 -3.04671,1.69262 -7.19074,1.1782 -10.49616,-0.65684 -7.49068,-4.15845 -11.39278,-14.91009 -17.70706,-21.54628 -9.01742,-9.47709 -24.19164,-19.26877 -29.12578,-31.00319 z"
             style="fill:#ffffff"
             id="path4800" />
        </g>
        <g
           id="g5429"
           transform="matrix(0.07261241,-0.01259146,0.01259163,0.07261183,59.721414,109.37079)">
          <circle
             transform="translate(6.4724961,405.113)"
             id="path4144-1-6-5"
             style="color:#000000;display:inline;overflow:visible;visibility:visible;fill:#000000;fill-opacity:1;fill-rule:nonzero;stroke:none;stroke-width:9;marker:none;enable-background:accumulate"
             cx="169.90291"
             cy="349.51456"
             r="69.579285" />
          <path
             inkscape:connector-curvature="0"
             d="m 199.74288,731.11056 c -5.28027,-12.16735 -5.55158,-3.6059 -4.33999,-16.24202 0.0408,-1.26885 2.83904,-0.5446 4.36468,-2.43818 1.13233,-1.40538 -1.10845,-3.09328 -1.12596,-3.55807 -0.0137,-0.36363 0.0472,-0.74769 0.14013,-0.85385 0.0929,-0.10609 0.38824,-0.86453 0.66127,-1.68695 0.27301,-0.82243 2.0275,-2.59595 2.78256,-4.23828 0.9419,-2.04854 3.15373,-0.32822 3.34229,-1.7282 0.24415,-1.81443 -1.75655,0.67245 2.19931,-5.72992 2.22523,-8.22519 9.51485,-7.64692 9.76834,-0.34093 0.009,1.33016 -3.39412,5.56509 -5.73388,10.43101 -2.33979,4.86582 -3.61673,10.3627 -4.66168,11.18698 -0.93433,0.73709 -2.11246,2.35052 -2.0907,3.29412 0.018,0.7811 0.56736,1.37775 -0.77671,3.9924 -0.98224,1.91079 -1.76794,3.6291 -1.74853,3.8193 0.0413,0.40623 -1.3099,2.29037 -2.781,4.09211 z m -3.64462,-3.35814 c -0.48825,1.50218 3.78479,1.14472 3.34304,1.95338 -0.60214,1.10259 0.37154,0.63144 0.35517,0.79358 -0.54519,3.4199 -1.87439,5.73985 -2.32277,6.99647 -0.95323,1.61322 0.44713,2.41223 0.42913,2.59049 -0.018,0.17816 -0.43842,0.64708 -0.92507,1.04448 -0.8024,0.65529 -0.87973,0.88733 -0.89594,2.47462 -0.0102,0.96279 0.2486,2.46725 0.57821,3.34668 0.56935,1.51941 0.99134,2.4814 3.40339,7.74005 0.73498,1.60227 0.92975,2.35258 0.68297,2.59546 -0.23808,0.23442 -0.25371,0.96261 -0.0499,2.30939 0.16352,1.08066 0.17624,2.34087 0.026,2.79915 -0.15026,0.45826 -0.14102,0.84404 0.0192,0.86021 0.16023,0.0162 0.77618,0.56097 1.36209,1.2175 1.32325,1.4829 2.87674,2.11269 5.67883,2.29958 0.98622,0.0658 1.49716,-0.61111 0.72357,-0.95876 -0.67063,-0.30149 3.87171,-3.48763 5.71846,-4.01283 1.8602,-0.52903 3.8833,-0.4789 4.36663,0.11296 0.44532,0.54538 -0.68889,2.2121 -2.54676,3.73529 -0.87576,0.71797 -2.13187,1.97959 -2.79027,2.80415 -0.97206,1.21738 -1.35237,1.4835 -2.04238,1.41383 -0.46735,-0.0471 -0.95161,-0.32299 -1.07626,-0.61012 -0.16869,-0.38863 -0.31633,-0.14204 -0.5804,0.97324 -0.42806,1.80774 -2.15101,4.67504 -3.35044,5.58282 -0.47979,0.36302 -0.88278,0.81626 -0.9012,0.99869 -0.0523,0.51769 -6.17352,5.75721 -7.08271,6.06412 -0.44666,0.15068 -1.39307,0.5603 -2.10681,0.90589 -0.71375,0.34553 -1.57408,0.61475 -1.91179,0.59771 -0.33765,-0.0176 -1.00743,0.0835 -1.48851,0.22581 -0.62794,0.18572 -1.1025,0.14396 -1.68193,-0.15074 -1.5544,-0.78985 -4.01273,-0.81858 -6.70349,-0.0789 -3.03992,0.83574 -4.50224,1.01937 -7.96943,0.99865 -3.65777,-0.0216 -4.66942,-0.26809 -5.66341,-1.40116 -0.42393,-0.48328 -0.54931,-0.90899 -0.37964,-1.30161 0.31073,-0.71897 -0.19457,-1.52397 -1.00465,-1.6058 -0.33326,-0.0338 -1.14459,0.28097 -1.80688,0.70475 -1.527,0.97712 -5.95772,2.81601 -7.60873,3.15664 -3.28275,0.67713 -4.62247,0.004 -9.33754,-4.7421 -2.52157,-2.53809 -4.67999,-7.11326 -5.24282,-11.10795 -0.52233,-3.70821 -0.8796,-5.38405 -1.49779,-7.03631 -0.96323,-2.57454 -1.20182,-4.18727 -0.7199,-4.90385 0.26905,-0.40013 0.4707,-2.38071 0.67652,-6.60489 0.27658,-5.67745 0.45115,-6.85155 1.5809,-10.97836 0.23333,-0.85231 0.38727,-0.95628 1.39661,-0.93901 1.58701,0.0271 2.22299,-0.90838 1.91196,-2.79629 -0.12401,-0.75277 -0.52474,-1.70515 -0.88581,-2.11457 -0.36252,-0.41105 -0.58854,-1.00156 -0.50278,-1.3237 0.1697,-0.63758 -0.4763,-2.34316 -0.90657,-2.38662 -0.14754,-0.0149 -0.10349,-0.71554 0.0988,-1.5522 0.53277,-2.20294 0.12027,-3.3631 -1.23768,-3.50023 -0.79624,-0.0805 -1.33338,-0.43991 -2.30403,-1.53451 -1.57696,-1.77841 -4.57418,-6.70945 -4.7305,-7.77746 -0.0641,-0.43787 -0.51815,-1.65306 -0.99979,-2.70462 -0.543,-1.18557 -0.78589,-2.12392 -0.63821,-2.46559 0.13097,-0.30312 0.0212,-1.23145 -0.25388,-2.07002 -0.52395,-1.59718 -0.57535,-5.91372 -0.0856,-7.26993 0.14759,-0.40873 0.78234,-1.06338 1.40951,-1.44881 1.06146,-0.65222 1.23165,-0.66299 2.54913,-0.22478 1.61419,0.53693 4.67078,3.54615 5.34095,5.26431 0.21615,0.55412 0.8033,1.57529 1.30477,2.26282 0.8618,1.18173 0.90242,1.37701 0.68587,3.52182 -0.18819,1.86395 -0.10992,2.62968 0.46367,4.28978 0.89935,2.60287 1.85256,4.92407 1.51034,6.20289 -0.16623,0.6211 -0.78141,1.0758 -0.56586,1.44308 0.22921,0.39061 0.24446,0.7108 0.0325,0.91945 -0.17946,0.1766 -0.30882,0.4408 -0.29076,0.58774 0.0527,0.42844 -0.5639,1.40676 -1.12534,1.78608 -0.53207,0.35952 -0.36073,0.36537 1.59806,0.0261 0.6157,-0.10657 0.69076,0.41825 0.10244,0.70456 -0.2518,0.12261 -0.16477,0.29176 0.25824,0.49863 0.4186,0.20478 0.61683,0.57608 0.56699,1.06977 -0.0459,0.45473 0.13166,0.84304 0.45059,0.98089 0.29052,0.12553 1.11486,0.911 1.83888,1.74791 0.72405,0.83688 1.5995,1.55005 1.94217,1.58469 0.34266,0.0346 1.02841,-0.33081 1.52821,-0.81004 0.49978,-0.47922 1.06645,-0.97369 1.24877,-1.09859 0.18233,-0.12494 0.87687,-0.5984 1.54275,-1.0496 1.49011,-1.00986 2.38597,-3.17113 1.9979,-4.79369 -0.13227,-0.55293 -0.224,-1.91556 -0.21477,-3.03037 0.0159,-1.91897 0.0594,-2.06418 0.93632,-2.77915 0.50941,-0.41522 1.16449,-0.73103 1.45937,-0.70122 0.82783,0.0836 1.2425,-1.38695 0.55653,-1.97858 -0.64226,-0.55385 -0.83459,-1.99035 -0.36497,-2.68875 0.43237,-0.64293 0.11087,-1.78413 -0.85814,-3.05675 -1.49982,-1.96958 -1.97852,-2.79441 -2.09586,-3.59643 -0.10557,-0.72157 -0.91476,-2.51108 -1.56709,-3.48508 -0.59448,-0.8877 -2.55642,-8.68095 -2.45084,-9.72678 0.0641,-0.63428 -0.0742,-1.9385 -0.30558,-2.89494 -0.36303,-1.50084 -0.34666,-2.14829 0.12492,-4.77041 0.47988,-2.66855 0.67043,-3.19068 1.57542,-4.23822 0.70123,-0.81166 1.42974,-1.28305 2.28015,-1.47662 3.62193,-0.50333 5.42823,-0.9121 4.90467,3.28351 1.55964,0.88724 1.83199,2.64726 0.87206,7.08084 1.475,4.16505 2.46167,7.96896 0.89405,11.1607 -0.69177,1.40846 0.25957,4.15503 -0.0589,5.63244 -0.30439,1.4119 -0.66136,2.76452 -0.79526,3.00553 -0.13385,0.24111 -0.27448,0.57402 -0.31574,0.73961 -0.0413,0.16552 -0.22619,0.77178 -0.40605,1.34759 -0.20989,0.67205 -0.2096,1.5104 -0.005,2.34279 0.19771,0.80491 0.19717,1.44888 0.002,1.69745 -0.54572,0.69592 -0.48549,1.46169 0.1,1.30231 0.43891,-0.1195 0.4792,0.004 0.25323,0.73912 -0.21395,0.69656 -0.0518,1.31851 0.76377,2.94117 1.1282,2.24493 0.95859,2.16868 3.94497,1.70982 0.68955,-0.10594 1.78338,-0.21768 2.43651,-0.25544 0.99698,-0.0577 1.28217,-0.245 1.76339,-1.13346 0.40494,-0.74763 0.54857,-1.47401 0.49115,-2.47696 -0.0448,-0.78073 -0.058,-1.96912 -0.0318,-2.64543 0.0261,-0.67622 -0.0328,-1.50901 -0.13188,-1.84548 -0.14435,-0.48973 -0.0866,-0.56277 0.3068,-0.36439 0.33704,0.16997 0.51636,0.0881 0.57685,-0.26961 0.14918,-0.88223 0.0908,-1.74794 -0.13276,-1.93248 -0.22101,-0.18233 -0.46973,-1.70769 -0.4119,-2.51029 0.0181,-0.2527 -0.16553,-1.13589 -0.4096,-1.96033 -0.36984,-1.24941 -0.36986,-2.04578 0.0102,-4.78197 0.41514,-2.98796 0.3834,-7.54472 -0.054,-8.44344 -0.0875,-0.17981 0.012,-2.38254 0.21472,-4.89645 0.32815,-4.0695 0.30396,-4.72302 -0.19957,-5.95084 -0.47471,-1.15731 -0.52229,-1.86921 -0.28502,-4.43561 0.26102,-2.8234 0.3794,-3.2271 1.53632,-5.28373 0.86378,-1.53545 1.50207,-2.30932 2.04533,-2.49356 1.0131,-0.34346 3.06307,-0.13678 3.87566,0.39133 0.79625,0.51762 3.68434,4.24231 4.12098,5.3149 0.56163,1.37975 0.75753,3.96767 0.54888,7.07567 -0.11038,1.64412 -0.11141,3.5078 -0.0136,4.14533 0.18219,1.18608 -1.21843,11.85006 -1.62616,12.38161 -0.117,0.1526 -0.50587,1.82364 -0.85699,3.71272 -0.41577,2.23707 -0.9768,4.15521 -1.6062,5.49848 -1.01203,2.15975 -1.74714,4.93621 -1.80121,6.76129 -0.0176,0.59224 -0.12553,2.08349 -0.22845,3.31335 -0.16533,1.97618 -0.27125,2.28858 -0.91714,2.68464 -0.95522,0.58573 -0.64699,1.46709 0.36652,1.04948 0.51853,-0.21356 0.75553,-0.15805 1.09283,0.25497 0.44303,0.54267 0.47818,0.7134 0.40285,2.02723 -0.0335,0.58302 0.14006,0.80266 0.72558,0.93153 0.60673,0.13347 4.00721,1.35304 4.68775,0.50513 2.24771,0.0954 0.0118,-0.14105 4.09116,-1.34882 z m -18.49339,16.43695 c -0.59172,-0.13775 -1.74376,0.10243 -2.39291,0.5877 -0.92947,0.69477 -3.02934,0.98701 -3.28635,0.45889 -0.0895,-0.18396 -0.57148,-0.37589 -1.07548,-0.42677 -0.504,-0.0508 -0.85056,0.0413 -0.77251,0.20163 0.078,0.16035 -0.33536,0.70436 -0.91285,1.20972 -0.93303,0.81643 -1.04811,1.06131 -1.0064,2.23201 0.0396,1.11264 -0.0767,1.4358 -0.77621,2.05277 -0.45553,0.4018 -0.9344,0.96496 -1.06275,1.26207 -0.1284,0.29707 -0.70053,0.65061 -1.27426,0.77778 -1.49536,0.33147 -1.97214,1.2866 -1.22142,2.45143 0.53159,0.82477 0.54237,1.06865 0.11979,2.53864 -0.37065,1.28929 -0.39872,2.05667 -0.1468,3.74624 0.69426,4.65498 2.12349,8.64238 3.14757,8.7458 0.23394,0.0231 0.5861,0.30781 0.77459,0.63749 0.18848,0.32972 0.95474,0.82679 1.71157,1.09855 0.75686,0.27183 1.57575,0.59182 1.81794,0.71396 0.24767,0.12489 0.54146,0.0286 0.66848,-0.22179 0.12424,-0.24641 0.73862,-0.6079 1.36303,-0.79776 0.62439,-0.18984 1.41111,-0.73912 1.75293,-1.22125 0.34184,-0.48213 0.8414,-0.92229 1.10165,-0.97843 0.34565,-0.0746 0.55204,-0.6501 0.76574,-2.14062 0.24196,-1.68728 0.45452,-2.20631 1.22865,-3.00033 1.07645,-1.1042 1.25308,-1.34334 1.76071,-2.34878 1.47452,-2.92064 2.50662,-5.77995 2.85048,-7.88967 0.21773,-1.3358 0.78229,-3.2923 1.24903,-4.34833 0.70957,-1.60555 0.8061,-2.11393 0.62157,-3.10021 -0.14991,-0.80114 -0.39642,-1.19716 -0.77208,-1.23514 -0.7615,-0.0769 -2.59078,0.36456 -3.19219,0.76731 -1.07322,0.71891 -1.76714,0.62018 -2.19638,-0.30851 -0.22619,-0.4894 -0.43617,-1.02811 -0.47713,-1.19574 -0.0325,-0.13327 -0.17101,-0.22271 -0.36823,-0.2686 z m 60.08377,4.97821 c 0.3288,0.10923 0.45798,0.31113 0.66185,0.70331 0.23496,0.452 0.68022,0.92975 0.99182,1.06446 0.7375,0.31877 0.85121,1.71168 0.2264,2.81942 -0.6841,1.21282 -5.91324,5.49286 -7.71595,6.31829 -0.81592,0.37373 -1.48899,0.80366 -1.50449,0.95714 -0.0902,0.89321 -2.93683,2.69961 -4.61568,2.92838 -0.84635,0.11533 -2.18261,-0.0766 -4.37168,-0.63435 -0.99847,-0.25433 -1.38133,-0.50028 -1.34999,-0.85947 0.024,-0.27532 -0.17913,-0.85478 -0.44842,-1.28929 -0.42969,-0.69333 -0.43095,-0.88225 8.6e-4,-1.54277 0.27099,-0.41387 1.16624,-1.89424 1.99072,-3.28972 1.39951,-2.36888 1.67261,-2.64154 4.0477,-4.08485 4.44986,-2.70408 6.17431,-3.24655 10.22842,-3.21985 0.99708,0.007 1.52881,0.0205 1.85763,0.12961 z"
             style="fill:#ffffff"
             id="path3055" />
        </g>
        <g
           id="g5346"
           transform="matrix(0.06918039,-0.01199632,0.01199648,0.06917985,39.763493,141.97882)">
          <circle
             transform="translate(108.41424,178.57578)"
             id="path4144-1-6-12"
             style="color:#000000;display:inline;overflow:visible;visibility:visible;fill:#000000;fill-opacity:1;fill-rule:nonzero;stroke:none;stroke-width:9;marker:none;enable-background:accumulate"
             cx="169.90291"
             cy="349.51456"
             r="69.579285" />
          <path
             id="path3822"
             d="m 248.10588,507.09684 c -1.77402,0.10582 -13.19331,-1.86767 -14.87114,-2.5695 -1.0734,-0.46862 -5.12609,-2.72648 -5.29022,1.33377 -0.85121,21.04946 -1.85158,38.61103 4.76923,60.77223 0.59243,2.12531 0.21678,1.54215 1.50049,5.17099 0.39402,1.11382 0.66498,3.46698 7.27399,2.97704 27.78004,0.9537 36.40425,3.03555 57.09968,5.37016 13.3609,5.08648 13.19508,-25.05463 17.12746,-35.17291 0.6463,-0.97598 8.81124,-21.98706 6.69668,-31.18091 -0.26059,-1.13293 0.003,-2.2539 -2.26651,-2.79304 -6.28122,-1.40494 -9.07494,-1.1281 -17.60654,-0.71346 -2.61395,-55.8568 -51.37556,-46.04003 -54.4356,-3.19432 z m 49.60685,3.21817 c -10.00491,-0.83897 -31.10613,-1.22313 -44.92267,-2.58338 -0.005,-46.08613 50.54353,-40.11498 44.92267,2.58338 z"
             inkscape:connector-curvature="0"
             style="fill:#ffffff" />
        </g>
        <g
           id="g5179"
           transform="matrix(0.04991392,-0.00865539,0.00865551,0.04991352,49.641689,135.45743)">
          <circle
             transform="translate(-385.11327,2.2003704)"
             id="path4144"
             style="color:#000000;display:inline;overflow:visible;visibility:visible;fill:#000000;fill-opacity:1;fill-rule:nonzero;stroke:none;stroke-width:9;marker:none;enable-background:accumulate"
             cx="169.90291"
             cy="349.51456"
             r="69.579285" />
          <path
             style="fill:#ffffff"
             inkscape:connector-curvature="0"
             d="m -241.53948,406.41211 48.69733,-41.28308 c 0,0 -13.73597,-8.60864 -13.6436,-10.03175 0.0923,-1.4231 44.75899,-33.39294 42.80195,-34.09171 -1.95533,-0.69858 -20.02966,-8.44588 -18.2667,-9.18883 1.76306,-0.74298 51.58272,-39.65933 51.58272,-39.65933 l -75.84193,-4.92343 -34.29313,54.54801 c 0,0 33.02915,8.95487 31.5137,10.2856 -1.51541,1.3307 -31.3851,30.88038 -31.3851,30.88038 0,0 19.99415,8.10869 19.0665,9.19151 -0.92775,1.08303 -20.23045,34.2715 -20.23045,34.2715 z"
             id="path6183" />
        </g>
        <g
           id="g5183"
           transform="matrix(0.09037354,-0.01567135,0.01567156,0.09037283,54.525006,115.9164)">
          <circle
             transform="translate(-365.69579,170.48517)"
             id="path4144-2"
             style="color:#000000;display:inline;overflow:visible;visibility:visible;fill:#000000;fill-opacity:1;fill-rule:nonzero;stroke:none;stroke-width:9;marker:none;enable-background:accumulate"
             cx="169.90291"
             cy="349.51456"
             r="69.579285" />
          <path
             d="m -160.11423,475.87103 c -0.85627,-0.0603 -1.74833,0.12009 -2.55051,0.58345 l -15.34233,8.87668 c -9.58267,-8.52703 -20.10908,-11.89685 -27.47714,-7.64138 -11.0899,6.40477 -10.81462,27.63559 0.59667,47.40193 11.4112,19.76633 29.64322,30.57716 40.73323,24.17194 7.36841,-4.25549 9.72951,-15.03755 7.13627,-27.60103 l 15.35518,-8.87618 c 2.13937,-1.23551 2.85517,-3.93542 1.61984,-6.07506 -1.23523,-2.13975 -3.93764,-2.85504 -6.07693,-1.6195 l -13.44059,7.75268 c -1.34296,-3.63212 -3.0579,-7.30942 -5.15652,-10.94458 -2.09828,-3.63468 -4.44606,-6.98226 -6.91941,-9.96095 l 13.44061,-7.75268 c 2.13929,-1.23551 2.85517,-3.93537 1.6198,-6.07509 -0.78453,-1.33874 -2.10777,-2.14107 -3.54374,-2.24121 z m -0.0498,1.97337 c 0.77458,0.0546 1.50521,0.495 1.92275,1.21816 0.66803,1.15725 0.28102,2.62257 -0.87592,3.29076 -1.15695,0.66824 -2.62367,0.28149 -3.29182,-0.87565 -0.66805,-1.15722 -0.28104,-2.62254 0.87591,-3.29083 0.43389,-0.25057 0.90426,-0.37531 1.36893,-0.34247 z m -37.09101,2.25431 c 4.80862,0.11298 10.38761,2.73274 15.78457,7.23938 l -10.77496,6.22312 c -2.1393,1.23559 -2.89322,3.97044 -1.65799,6.11005 1.23519,2.13975 3.9742,2.8567 6.1134,1.62114 l 12.84022,-7.41318 c 2.55249,2.99209 4.96543,6.36341 7.13237,10.11648 2.05538,3.56033 3.7309,7.19452 5.01994,10.71925 l -12.94932,7.44414 c -2.1393,1.23549 -2.85675,3.97189 -1.62143,6.11162 1.23522,2.1397 3.93764,2.855 6.07693,1.61941 l 10.96234,-6.32469 c 1.94529,10.36003 0.0683,18.98308 -5.77229,22.35531 -9.32253,5.3786 -25.17182,-4.66416 -35.43648,-22.43931 -10.26468,-17.77633 -11.02396,-36.5485 -1.7132,-41.9264 1.79001,-1.03256 3.80158,-1.50895 5.98914,-1.45754 z m -15.77685,3.55314 c -2.09089,0.1741 -4.08023,0.76401 -5.86036,1.79216 -3.22536,1.86275 -5.4838,4.95291 -6.7945,8.92164 -14.1819,8.98472 -20.46812,25.92525 -16.29979,41.32049 -14.66116,9.90182 -23.45564,22.21237 -17.70234,49.12501 0.9888,4.62493 6.03085,7.02133 9.1262,6.36265 3.3576,-0.71461 7.51322,-4.40559 7.38342,-8.16421 -0.25558,-7.29743 -2.70143,-12.63032 -1.67583,-17.81602 0.86143,-4.35234 4.83653,-9.15603 12.04034,-13.4848 11.24353,11.46374 29.14164,14.56039 44.0989,6.72303 4.08916,0.84669 7.92633,0.44732 11.15002,-1.41432 1.78013,-1.02813 3.26743,-2.43397 4.46346,-4.15816 -10.93549,0.91178 -24.80356,-9.67844 -34.38344,-26.2716 -9.57869,-16.59323 -11.8065,-33.91945 -5.54507,-42.93585 z m -5.24988,5.40405 c -0.96698,3.03316 -1.79072,9.57053 -1.69427,11.12037 0.58116,7.72019 2.97822,15.20511 6.23796,22.18674 3.43778,7.12966 7.73666,13.9103 13.19111,19.6733 4.94528,5.61984 11.85829,10.87703 21.8697,12.84663 -0.66864,0.14668 -5.07869,0.32682 -5.7598,0.33324 -1.98442,0.20314 -3.97978,-0.77157 -5.89476,0.0711 -3.91786,1.89142 -8.12289,3.24171 -12.45752,3.69834 -3.42506,0.20082 -6.92168,0.15756 -10.29664,-0.52383 -6.46884,-1.37121 -12.5415,-4.54881 -17.15768,-9.31147 -1.30961,-0.49368 -2.82208,-0.293 -4.22238,-0.51402 -1.04182,0.40248 -1.99687,1.20372 -2.97018,1.80887 -4.34739,3.13372 -8.64464,7.01218 -10.37953,12.24032 -1.63911,4.56347 -0.47306,9.40769 0.26453,14.02335 -0.7832,-0.27194 -1.58035,-0.41327 -2.39702,-0.50993 -2.57278,-0.48019 -5.30312,0.31224 -7.22646,2.06246 -0.51625,-3.61418 -0.83387,-7.30159 -0.58105,-10.9641 0.10618,-4.62187 1.15907,-9.22569 3.25566,-13.35645 3.02159,-6.13557 8.21169,-10.8486 13.70853,-14.72879 1.48981,-0.78311 2.48301,-2.32069 2.26239,-4.03485 -0.50187,-3.01959 -1.17092,-6.00618 -1.10274,-9.08442 -0.0895,-10.0847 4.82511,-20.00978 12.60665,-26.33737 1.38276,-1.28814 3.38134,-1.94603 4.36655,-3.61351 0.19066,-0.89082 1.2804,-4.42114 4.3722,-7.08873 z m 74.18315,17.40508 c 0.9355,-0.11617 1.89808,0.33457 2.39926,1.20248 0.66805,1.15721 0.27946,2.65914 -0.87751,3.32727 -1.15701,0.66823 -2.65868,0.24333 -3.32667,-0.91383 -0.66803,-1.1572 -0.28103,-2.62257 0.87594,-3.29085 0.28921,-0.16699 0.61722,-0.28638 0.92906,-0.32514 z m -107.23956,73.15558 c 2.01104,0.0368 4.74247,0.9662 4.86183,2.62735 0.31121,2.1707 -1.16355,4.95285 -4.30358,5.5186 -3.13986,0.56582 -5.24814,-1.45861 -5.48412,-3.45929 -0.29622,-2.51244 1.89708,-4.19501 4.11914,-4.64868 0.24776,-0.0319 0.5194,-0.0432 0.80673,-0.038 z"
             inkscape:connector-curvature="0"
             style="fill:#ffffff;fill-opacity:1"
             id="path3850" />
        </g>
        <g
           id="g5157"
           transform="matrix(0.07975825,-0.01383059,0.01383078,0.07975762,47.428702,86.311042)">
          <g
             transform="translate(-999.24557,-173.83311)"
             id="g5228">
            <circle
               style="color:#000000;display:inline;overflow:visible;visibility:visible;fill:#000000;fill-opacity:1;fill-rule:nonzero;stroke:none;stroke-width:9;marker:none;enable-background:accumulate"
               id="path4144-1-6-8"
               transform="translate(695.98871,526.86387)"
               cx="169.90291"
               cy="349.51456"
               r="69.579285" />
            <path
               id="path5371"
               style="fill:#ffffff;fill-opacity:1"
               d="m 870.59447,865.91639 c -1.55496,-0.32474 -3.01706,0.44843 -3.28473,1.73011 l -1.87045,8.95616 c -0.26762,1.28175 0.76276,2.57562 2.31772,2.90041 l 9.30197,1.94271 c 1.55492,0.32469 3.02529,-0.44682 3.29299,-1.72858 l 1.87041,-8.95617 c 0.26763,-1.28161 -0.77101,-2.57721 -2.32602,-2.90203 z m 0.69077,1.46834 7.39037,1.54351 c 1.23568,0.25807 2.05832,1.30203 1.84051,2.34492 l -1.52283,7.29181 c -0.21779,1.04297 -1.38938,1.67031 -2.625,1.41225 l -7.39042,-1.54357 c -1.23568,-0.25805 -2.05008,-1.30009 -1.83233,-2.34314 l 1.52286,-7.29174 c 0.21772,-1.04301 1.38113,-1.67203 2.61684,-1.41404 z m -3.9808,14.28559 c -1.55494,-0.32477 -3.01701,0.44844 -3.28472,1.73022 l -1.87044,8.95616 c -0.26764,1.28168 0.76279,2.57556 2.31776,2.90028 l 9.30186,1.94273 c 1.55498,0.32479 3.02536,-0.44673 3.29305,-1.72849 l 1.87037,-8.9561 c 0.26771,-1.28173 -0.77098,-2.57726 -2.32602,-2.90203 z m 0.69083,1.46847 7.39041,1.54344 c 1.23563,0.25811 2.05819,1.30195 1.84041,2.34497 l -1.5228,7.2917 c -0.21773,1.04298 -1.3894,1.67033 -2.6251,1.41234 l -7.39036,-1.54359 c -1.23568,-0.25808 -2.05007,-1.30019 -1.83222,-2.3432 l 1.52278,-7.29171 c 0.21776,-1.04294 1.38113,-1.67206 2.61688,-1.41395 z m -17.47643,12.02415 c -1.55491,-0.32483 -3.01703,0.44856 -3.28479,1.7302 l -1.87032,8.9562 c -0.26762,1.28169 0.76279,2.57553 2.31778,2.90023 l 23.30491,4.86732 c 1.55504,0.32482 3.02533,-0.44671 3.29302,-1.72844 l 1.87041,-8.95615 c 0.26773,-1.28174 -0.77106,-2.57731 -2.32609,-2.90204 z m 0.6908,1.4685 21.39346,4.46805 c 1.23571,0.25802 2.05835,1.30188 1.84057,2.34488 l -1.52287,7.2918 c -0.21782,1.0429 -1.38928,1.67028 -2.62517,1.4121 l -21.3934,-4.46802 c -1.23575,-0.25801 -2.05001,-1.30017 -1.8322,-2.34311 l 1.52271,-7.29177 c 0.2179,-1.04298 1.38119,-1.67213 2.6169,-1.41393 z m -18.72097,-5.69391 c -1.5551,-0.32479 -3.01717,0.44837 -3.28483,1.73016 l -1.87033,8.95611 c -0.26772,1.28182 0.76266,2.57566 2.31767,2.90041 l 9.30189,1.94275 c 1.555,0.32473 3.02525,-0.44689 3.29291,-1.72858 l 1.87046,-8.95619 c 0.26767,-1.28163 -0.77098,-2.57717 -2.32602,-2.90196 z m 0.69072,1.4685 7.39036,1.54347 c 1.23576,0.25804 2.05828,1.30195 1.84051,2.34485 l -1.52273,7.29188 c -0.21792,1.04293 -1.38944,1.67029 -2.62524,1.41218 l -7.39036,-1.54348 c -1.23576,-0.25807 -2.05009,-1.30027 -1.8322,-2.34317 l 1.52273,-7.2918 c 0.21795,-1.04298 1.38121,-1.67208 2.61693,-1.41393 z m -18.13619,-5.11206 c -1.55501,-0.32473 -3.01712,0.44844 -3.2848,1.73021 l -1.87031,8.95608 c -0.26776,1.28185 0.76267,2.57571 2.31755,2.90048 l 9.30191,1.94267 c 1.55509,0.32481 3.02543,-0.44677 3.29309,-1.72854 l 1.87037,-8.95616 c 0.26763,-1.28169 -0.77099,-2.57734 -2.32608,-2.90202 z m 0.69076,1.46852 7.39036,1.54347 c 1.23568,0.25812 2.05836,1.30189 1.84051,2.34487 l -1.52273,7.29181 c -0.21797,1.04294 -1.38947,1.67037 -2.62519,1.41227 l -7.39041,-1.5435 c -1.23571,-0.2581 -2.05012,-1.30021 -1.83227,-2.34318 l 1.52276,-7.29182 c 0.21786,-1.04292 1.38125,-1.67199 2.61697,-1.41392 z m -18.13343,-5.11142 c -1.55503,-0.32477 -3.01694,0.44844 -3.28469,1.73021 l -1.8704,8.95609 c -0.26759,1.28182 0.76267,2.57564 2.3178,2.90044 l 9.3017,1.94266 c 1.5551,0.32478 3.02547,-0.44675 3.29307,-1.72857 l 1.8704,-8.95615 c 0.26765,-1.28167 -0.77098,-2.57722 -2.32602,-2.90197 z m 0.69074,1.46856 7.39041,1.54339 c 1.23571,0.25803 2.05839,1.30194 1.84054,2.34489 l -1.52277,7.29176 c -0.21789,1.0431 -1.38939,1.6704 -2.62509,1.41232 l -7.39042,-1.54359 c -1.23577,-0.25798 -2.05001,-1.3001 -1.83225,-2.34312 l 1.52282,-7.29176 c 0.21781,-1.04293 1.38107,-1.672 2.61676,-1.41389 z m 37.50688,-10.02944 c -1.55506,-0.32479 -3.01708,0.44842 -3.28479,1.7302 l -1.87045,8.95616 c -0.26762,1.28169 0.76285,2.57558 2.31785,2.90022 l 9.30176,1.94281 c 1.555,0.32472 3.02537,-0.44683 3.293,-1.72855 l 1.87035,-8.95613 c 0.26775,-1.2817 -0.77097,-2.57727 -2.32588,-2.90204 z m 0.69072,1.46842 7.39045,1.54351 c 1.23567,0.25803 2.05831,1.30191 1.84046,2.34485 l -1.52277,7.2918 c -0.21777,1.04293 -1.38942,1.67036 -2.62518,1.41225 l -7.3904,-1.54347 c -1.23571,-0.25808 -2.04993,-1.30026 -1.8322,-2.34323 l 1.52279,-7.29164 c 0.21787,-1.04303 1.38119,-1.67223 2.61685,-1.41407 z m -18.1362,-5.11197 c -1.55499,-0.32478 -3.01703,0.44851 -3.28478,1.73024 l -1.87037,8.95616 c -0.26769,1.28158 0.76268,2.57549 2.31781,2.90024 l 9.30178,1.94276 c 1.55499,0.32473 3.02531,-0.44678 3.29302,-1.72842 l 1.87036,-8.95624 c 0.26771,-1.28166 -0.771,-2.57718 -2.32596,-2.90202 z m 0.69077,1.46842 7.39041,1.54355 c 1.23563,0.25799 2.05832,1.3019 1.84051,2.34492 l -1.52281,7.29173 c -0.21781,1.04294 -1.38944,1.67034 -2.62514,1.41223 l -7.39036,-1.54342 c -1.23582,-0.2581 -2.05011,-1.30029 -1.8323,-2.34328 l 1.52281,-7.29175 c 0.21781,-1.04298 1.38122,-1.67205 2.61688,-1.41398 z m -18.13331,-5.11128 c -1.55502,-0.32473 -3.01712,0.44848 -3.2848,1.73021 l -1.87031,8.95612 c -0.26776,1.2817 0.76262,2.57544 2.31771,2.90023 l 9.30184,1.94275 c 1.55495,0.32478 3.02525,-0.4468 3.293,-1.72848 l 1.87033,-8.95616 c 0.26767,-1.28167 -0.771,-2.57721 -2.326,-2.902 z m 0.69062,1.46839 7.39044,1.54351 c 1.23579,0.25807 2.05833,1.3019 1.8406,2.34488 l -1.52289,7.29177 c -0.21772,1.04297 -1.38934,1.67041 -2.62507,1.4122 l -7.39041,-1.54342 c -1.23567,-0.25807 -2.05001,-1.30027 -1.83216,-2.34321 l 1.52276,-7.29173 c 0.21783,-1.04305 1.38119,-1.67211 2.61673,-1.414 z m 37.42346,-9.62973 c -1.55498,-0.3247 -3.01722,0.44857 -3.28479,1.73024 l -1.87041,8.95613 c -0.26766,1.28173 0.76281,2.57557 2.3178,2.90036 l 9.30188,1.94271 c 1.55492,0.32473 3.02521,-0.44678 3.29293,-1.72842 l 1.87039,-8.95615 c 0.26759,-1.28183 -0.77094,-2.57734 -2.32594,-2.90208 z m 0.69075,1.46854 7.39032,1.54352 c 1.23581,0.25807 2.05837,1.3019 1.84059,2.34485 l -1.52285,7.29185 c -0.21775,1.04292 -1.38934,1.6702 -2.62504,1.41212 l -7.39047,-1.54342 c -1.23569,-0.25813 -2.05005,-1.30032 -1.83228,-2.34317 l 1.52294,-7.29188 c 0.2178,-1.04286 1.38112,-1.67197 2.61679,-1.41387 z m -18.13624,-5.11196 c -1.55491,-0.32485 -3.01716,0.44852 -3.28478,1.73012 l -1.8704,8.95624 c -0.26763,1.28174 0.76272,2.57553 2.31776,2.90022 l 9.30188,1.94277 c 1.55504,0.32477 3.02533,-0.4468 3.29304,-1.72849 l 1.87033,-8.95616 c 0.26766,-1.28178 -0.77098,-2.5773 -2.32598,-2.90207 z m 0.6908,1.46845 7.39034,1.54348 c 1.23567,0.25812 2.05831,1.30188 1.84055,2.34479 l -1.52285,7.29186 c -0.21781,1.04298 -1.38944,1.67029 -2.62506,1.41222 l -7.39042,-1.54353 c -1.23568,-0.25806 -2.05008,-1.3002 -1.83236,-2.34311 l 1.52286,-7.29177 c 0.21794,-1.04297 1.38124,-1.67204 2.61694,-1.41394 z m -18.13337,-5.11139 c -1.55507,-0.32482 -3.01705,0.44847 -3.28476,1.73017 l -1.87039,8.95615 c -0.26766,1.28173 0.76268,2.57554 2.31777,2.90028 l 9.30176,1.94275 c 1.55508,0.32483 3.02537,-0.44677 3.29301,-1.7285 l 1.87041,-8.95614 c 0.26773,-1.28171 -0.77094,-2.57726 -2.326,-2.90204 z m 0.69074,1.46847 7.39045,1.54343 c 1.23566,0.25812 2.05835,1.30198 1.8405,2.34496 l -1.5228,7.29181 c -0.21782,1.04298 -1.38945,1.67024 -2.62516,1.41222 l -7.39044,-1.54356 c -1.23567,-0.25816 -2.04993,-1.30023 -1.83213,-2.34308 l 1.52273,-7.2919 c 0.21789,-1.04293 1.38122,-1.67194 2.61685,-1.41388 z m 8.14289,-40.16674 c -3.58272,-0.7554 -5.39125,1.54828 -5.67382,2.90151 l -5.84741,27.99955 c -0.49799,2.38451 1.45473,4.54402 3.86033,5.04648 l 77.54782,16.19601 c 3.58418,0.74856 5.42147,-1.69568 5.69647,-3.05052 l 5.48792,-26.99715 c 0.27503,-1.35453 0.17907,-4.96431 -3.40361,-5.71985 z m 1.49771,3.43016 73.44598,15.33935 c 3.30738,0.69083 3.02095,2.90174 2.75486,4.13668 l -5.09032,23.63849 c -0.26611,1.23479 -2.37213,2.45832 -4.20469,2.06802 L 807.54835,846.5444 c -3.30461,-0.70421 -2.44667,-2.62802 -2.18846,-3.86468 l 5.06607,-24.25852 c 0.25825,-1.23658 1.02994,-1.96213 4.04275,-1.33287 z m -3.64212,-10.02911 c -4.08162,-0.85248 -8.06121,1.74441 -8.9136,5.82609 l -17.63814,84.45892 c -0.8525,4.0817 1.75549,8.05443 5.83674,8.90679 l 84.44723,17.63706 c 4.08161,0.85239 8.05226,-1.74641 8.90464,-5.82805 l 17.63811,-84.45899 c 0.8525,-4.08169 -1.74606,-8.05243 -5.82768,-8.90489 z m 2.39393,4.80053 77.93008,16.27589 c 3.76618,0.78649 6.17266,4.42782 5.3937,8.15781 l -16.11687,77.17411 c -0.77898,3.72988 -4.44184,6.10356 -8.20781,5.3171 l -77.93,-16.27586 c -3.76623,-0.78655 -6.16366,-4.426 -5.38475,-8.15596 l 16.11689,-77.17411 c 0.77885,-3.72985 4.43254,-6.10557 8.19876,-5.31898 z"
               inkscape:connector-curvature="0" />
          </g>
        </g>
        <g
           id="g5370"
           transform="matrix(0.06040964,-0.01047542,0.01047556,0.06040916,29.242662,100.13854)">
          <circle
             transform="translate(460.72531,301.773)"
             id="path4144-1-6-4"
             style="color:#000000;display:inline;overflow:visible;visibility:visible;fill:#000000;fill-opacity:1;fill-rule:nonzero;stroke:none;stroke-width:9;marker:none;enable-background:accumulate"
             cx="169.90291"
             cy="349.51456"
             r="69.579285" />
          <path
             sodipodi:nodetypes="ccsscccsccccssc"
             inkscape:connector-curvature="0"
             d="m 646.85547,643.47737 c -8.49319,11.24074 -17.38413,14.26931 -19.33067,24.93805 -1.45273,7.95297 4.30884,15.55188 12.51005,16.88933 8.20129,1.33741 15.90852,-4.06321 17.20984,-12.0427 1.30105,-7.97901 -5.43848,-16.76515 -10.38922,-29.78468 z m 16.90986,25.35649 c -4.02197,5.32317 -8.23139,6.7687 -9.15335,11.82102 -0.68782,3.76606 2.03857,7.35947 5.9223,7.99287 3.88377,0.63336 7.52093,-1.92167 8.13703,-5.70011 0.61622,-3.77845 -2.56152,-7.94801 -4.90598,-14.11378 z m -52.37404,-74.51323 c -17.07608,22.60058 -34.93389,28.68611 -38.84806,50.13487 -2.92082,15.99005 8.64857,31.25323 25.13781,33.94221 16.4892,2.68901 32.00235,-8.15441 34.61849,-24.19724 2.61604,-16.04284 -10.95299,-33.70336 -20.90824,-59.87984 z"
             style="color:#000000;fill:#ffffff;fill-opacity:1;fill-rule:evenodd"
             id="path5663" />
        </g>
        <g
           id="g5199"
           transform="matrix(0.04563579,-0.00791354,0.00791364,0.04563543,23.803243,165.11019)">
          <circle
             transform="translate(257.28156,3.8185003)"
             id="path4144-1-6-793"
             style="color:#000000;display:inline;overflow:visible;visibility:visible;fill:#000000;fill-opacity:1;fill-rule:nonzero;stroke:none;stroke-width:9;marker:none;enable-background:accumulate"
             cx="169.90291"
             cy="349.51456"
             r="69.579285" />
          <path
             inkscape:connector-curvature="0"
             d="m 402.28339,404.15569 c 10.92187,9.92556 23.14436,12.53324 36.67691,9.55517 3.08225,1.80362 1.50647,4.98131 -1.41102,5.41615 -13.15892,2.43898 -25.36803,-0.73505 -36.67682,-9.55515 -2.30421,-3.45023 -1.21307,-6.91703 1.41093,-5.41617 z m -1.03837,8.94624 c 10.08867,9.70853 21.51483,12.10867 34.25901,8.92526 2.8633,1.74656 1.33373,4.93624 -1.41083,5.41621 -12.38613,2.64029 -23.79104,-0.32425 -34.25911,-8.92526 -2.10656,-3.39882 -1.02681,-6.86856 1.41093,-5.41621 z m 1.41061,10.7053 c -2.01178,-0.43915 2.11094,10.59656 6.89043,14.35664 -0.936,4.4534 4.97336,6.07121 6.18237,1.61064 6.19413,-0.11984 17.28535,-8.47139 12.60839,-9.24604 -10.13401,2.07226 -17.73944,-0.13462 -25.41131,-6.62024 -0.0979,-0.0541 -0.19193,-0.0844 -0.27078,-0.1016 z M 446.27182,306.2768 c -22.61251,-5.89108 -45.46301,6.72132 -51.04959,28.16657 -5.47958,29.87244 14.47896,46.25274 6.30547,62.45928 4.24087,10.63615 30.71709,18.41017 40.10019,10.44703 -1.92302,-17.46742 30.00487,-29.55637 35.47528,-51.57448 5.58666,-21.446 -8.21883,-43.60734 -30.83117,-49.49835 z m -0.90833,5.29594 c 7.99949,1.95185 15.10857,6.836 20.1825,13.35916 7.60895,9.29047 9.74119,22.74287 4.96188,33.85533 -5.13784,10.32291 -14.63772,17.38991 -22.42002,25.57504 -5.57272,5.33213 -10.58533,11.8543 -11.42648,19.79835 -2.79421,1.42617 -6.26526,1.37557 -9.38168,1.04657 -3.27471,-0.57409 -6.72602,-1.2521 -9.96985,-2.37342 0.39675,-0.79445 0.82484,-1.81588 1.27285,-3.02741 2.74218,-7.41433 3.76741,-15.48336 3.32993,-26.34761 -0.0802,-1.99365 -0.40946,-7.00913 -0.52106,-7.94714 -0.0467,-0.39227 -0.20996,-1.53815 -0.37058,-2.54663 -0.37694,-2.3674 -0.49109,-3.25501 -0.55532,-4.39947 -0.19986,-3.55735 0.69275,-5.49079 2.87973,-6.23122 0.72448,-0.24527 1.36921,-0.18037 1.78327,0.18795 0.26523,0.23582 0.64452,0.93672 0.85782,1.58024 0.45709,1.3783 0.52349,1.55874 0.74924,1.94715 0.25171,0.433 0.45796,0.61984 0.74803,0.6954 0.30376,0.0792 0.79021,0.0333 1.04603,-0.0963 0.13117,-0.0664 0.56176,-0.43535 0.9621,-0.8295 0.8842,-0.87045 1.3362,-1.24516 1.86747,-1.54205 0.65492,-0.36582 0.89694,-0.42498 1.27605,-0.32621 0.76792,0.20007 1.0976,0.76643 1.4319,2.44114 0.14732,0.73845 0.36931,1.20954 0.65704,1.39622 0.28737,0.1866 0.95344,0.31388 1.3616,0.24955 0.42577,-0.0672 0.95206,-0.4098 1.22914,-0.79947 0.1151,-0.16213 0.40115,-0.62526 0.63554,-1.03312 0.52408,-0.91171 0.77519,-1.21315 1.46691,-1.71229 1.20823,-0.87172 2.3693,-1.20054 3.37263,-0.93914 0.38082,0.0992 0.45358,0.13946 0.64151,0.35136 0.20728,0.23259 0.42274,0.66671 0.58848,1.20713 0.0962,0.31383 0.15899,0.36455 0.37243,0.22871 0.2705,-0.17214 0.52189,-0.54681 0.62852,-0.95596 0.11486,-0.44142 0.0933,-0.80912 -0.077,-1.61387 -0.18967,-0.89601 -0.60992,-1.49616 -1.39412,-1.98344 -0.46023,-0.28613 -1.953,-0.66284 -2.89887,-0.72823 -0.91018,-0.0636 -1.25571,0.002 -1.78348,0.36523 -1.19738,0.8239 -1.512,0.97357 -1.99258,0.91672 -0.22702,-0.0264 -0.29512,-0.0773 -0.51297,-0.29178 -0.34484,-0.33941 -1.07596,-0.79941 -1.61703,-1.02718 -0.62829,-0.26465 -1.73675,-0.49749 -2.36966,-0.49896 -0.27786,-3.5e-4 -0.7675,0.0469 -1.0892,0.11139 -0.50749,0.10148 -0.69878,0.18193 -1.42346,0.59073 -0.84735,0.47823 -1.38078,0.65359 -1.5485,0.51869 -0.0438,-0.0359 -0.32633,-0.26876 -0.63321,-0.53377 -0.98863,-0.85384 -1.52631,-1.14642 -2.61185,-1.37862 -0.83998,-0.17954 -1.46837,-0.17751 -2.30484,0.006 -1.23308,0.26963 -2.28178,0.82327 -3.41316,1.798 -0.76807,0.66177 -1.07253,1.01126 -1.44502,1.67845 -0.23536,0.42119 -0.28508,0.59182 -0.55316,1.62097 -0.24269,0.93167 -0.31363,1.29157 -0.36588,1.90689 -0.11879,1.40101 -0.10291,1.87996 0.099,3.18714 1.25351,8.1193 1.6782,17.19983 1.15134,24.66918 -0.21533,3.05254 -0.68456,6.64554 -1.27848,9.73057 -0.0942,0.48549 -0.51783,2.31346 -0.94046,4.06241 -0.53678,2.22101 -0.83887,3.54039 -1.01557,4.45109 -3.0085,-1.30712 -5.73619,-3.10472 -7.86974,-5.71227 2.55144,-7.46558 0.82912,-15.3892 -1.53721,-22.63557 -4.10774,-12.69688 -8.67126,-26.3658 -4.77958,-39.63026 5.17853,-17.5679 25.82871,-27.5307 42.93877,-22.74671 0.54085,0.10363 1.07603,0.22339 1.60935,0.35348 z m -3.65328,26.98643 c -0.21598,-0.0559 -0.39076,-0.0747 -0.46962,-0.0565 -0.13946,0.034 -0.0855,0.0924 0.81345,0.89687 2.03637,1.8222 3.46472,3.52837 4.59339,5.47767 0.87497,1.51127 1.79375,3.96532 2.20721,5.89662 0.47474,2.21824 0.49366,4.0624 0.0722,7.4088 -0.26563,2.111 -1.53397,4.87235 -3.28954,7.15187 -1.51238,1.96344 -3.22574,3.61758 -7.34555,7.09641 -1.34879,1.13901 -2.94647,2.56881 -3.54539,3.15983 -1.07553,1.06156 -1.80976,2.08075 -2.52022,3.54532 -0.61764,1.27292 -0.82156,1.84261 -1.04026,2.83772 -0.45556,2.07447 -0.18514,3.89955 0.82469,5.57608 0.17951,0.29796 0.42497,0.67686 0.54373,0.82664 0.2561,0.3231 0.47736,0.40151 0.80177,0.28828 0.48008,-0.16794 0.95995,-1.27281 1.25886,-2.873 0.0929,-0.49848 0.29385,-1.37953 0.44637,-1.96496 l 0.26413,-1.06401 0.41021,-0.67029 c 1.00818,-1.68284 2.38993,-3.31435 4.36389,-5.14628 0.38764,-0.35976 1.52643,-1.35524 2.52663,-2.21327 3.22652,-2.76786 4.49009,-3.97008 5.6852,-5.39491 1.85465,-2.21106 3.12509,-4.68121 3.86194,-7.49025 0.43429,-1.66693 0.62102,-2.93828 0.64986,-4.70445 0.0272,-1.70318 -0.21164,-4.2649 -0.51083,-5.62598 -1.1073,-5.03921 -4.33649,-9.81312 -8.06348,-11.90111 -0.76831,-0.4306 -1.89074,-0.88939 -2.53862,-1.05657 z"
             style="fill:#ffffff;fill-opacity:1"
             id="path5542" />
        </g>
        <g
           id="g5187"
           transform="matrix(0.04944601,-0.02926146,0.02926174,0.04944564,72.098123,155.89463)">
          <circle
             transform="translate(-16.181228,41.035329)"
             id="path4144-1-6"
             style="color:#000000;display:inline;overflow:visible;visibility:visible;fill:#000000;fill-opacity:1;fill-rule:nonzero;stroke:none;stroke-width:9;marker:none;enable-background:accumulate"
             cx="169.90291"
             cy="349.51456"
             r="69.579285" />
          <path
             inkscape:transform-center-y="-36.421516"
             inkscape:transform-center-x="13.638943"
             id="path2985"
             d="m 112.10373,451.79107 c -8.29328,-4.10798 -18.560945,-10.36817 -19.11624,-11.65506 -0.401721,-0.93103 0.0285,-1.98243 2.812833,-6.87391 3.600947,-6.32604 13.870957,-26.42169 18.299217,-35.80713 l 2.80113,-5.93658 4.14234,-6.82036 2.78328,-9.97028 -3.84276,9.70226 -4.46646,5.89545 -4.16857,-1.34947 c -6.08275,-1.96917 -11.03048,-6.8475 -12.808253,-10.27622 -0.79697,-1.53721 -0.769151,-1.62442 1.536883,-4.81499 1.91615,-2.6512 18.82112,-22.43674 24.91215,-29.15752 1.24608,-1.37484 1.97349,-1.62586 3.79019,-1.30809 4.40164,0.76999 21.74389,0.66994 23.29021,-0.13463 2.48058,-1.2904 6.34094,-0.6682 15.0733,2.42958 9.09499,3.22641 13.99557,5.95348 15.50725,8.6295 1.30556,2.31137 3.79721,4.85577 11.75094,11.99971 3.67357,3.29948 7.12286,6.49262 7.66543,7.09597 0.77502,0.86195 0.80887,5.72637 0.15781,22.69398 -0.95572,24.90387 -0.19554,22.8886 -8.6907,23.04407 -4.2184,0.0773 -6.11976,-0.25024 -10.89041,-1.8762 l -4.70288,-1.54911 2.83771,-9.50988 3.49178,-9.96203 -4.81826,9.79448 -2.58784,9.2565 -2.03049,6.24264 c -3.68415,11.32671 -8.25722,26.86849 -10.6095,36.0562 -1.90546,7.44372 -2.50111,9.12603 -3.36296,9.4986 -1.35065,0.58358 -12.8403,-1.94718 -22.97816,-5.06123 -8.9719,-2.756 -17.28449,-6.0701 -25.7783,-10.27741 z m 59.71949,-93.45864 c 4.94943,-0.44534 8.54191,-2.87002 6.72788,-4.54089 -2.90751,-2.67867 -19.84521,-8.81189 -21.89387,-7.92789 -1.64104,0.70811 1.41034,6.52843 4.98479,9.50838 1.87166,1.56031 7.51254,3.20062 10.18113,2.9606 z"
             inkscape:connector-curvature="0"
             style="fill:#ffffff" />
        </g>
        <g
           id="g5458"
           transform="matrix(0.06319414,-0.01095827,0.01095842,0.06319365,0.0375335,153.03404)">
          <circle
             transform="translate(727.90696,-1.7160111)"
             id="path4144-1-6-54"
             style="color:#000000;display:inline;overflow:visible;visibility:visible;fill:#000000;fill-opacity:1;fill-rule:nonzero;stroke:none;stroke-width:9;marker:none;enable-background:accumulate"
             cx="169.90291"
             cy="349.51456"
             r="69.579285" />
          <path
             style="fill:#ffffff"
             inkscape:connector-curvature="0"
             d="m 896.88003,299.71431 -3.0545,8.3058 c -1.59667,0.1579 -3.16481,0.4346 -4.70731,0.7777 l -5.52661,-6.977 -10.6358,4.8035 1.53223,8.7042 c -1.27803,0.9195 -2.51221,1.9276 -3.67371,2.9905 l -8.28999,-3.2088 -6.84414,9.44127 5.698,6.8267 c -0.64233,1.4255 -1.236,2.8837 -1.7114,4.398 l -8.7462,1.3599 -1.18831,11.5884 8.29225,3.0669 c 0.15882,1.5862 0.4371,3.1633 0.77892,4.6955 l -6.96117,5.492 4.78184,10.67 8.77337,-1.5071 c 0.91542,1.268 1.88093,2.5092 2.93753,3.6625 l -3.2208,8.2888 9.44627,6.7969 6.76931,-5.668 c 1.42423,0.644 2.89067,1.2348 4.404,1.712 l 1.40612,8.7634 11.59984,1.1893 3.15541,-8.2954 c 1.51186,-0.1555 3.02431,-0.4186 4.48741,-0.7403 l 5.65047,6.8816 10.6291,-4.7381 -1.46116,-8.8711 c 1.21902,-0.8833 2.38512,-1.8381 3.49765,-2.8525 l 8.39679,3.22 6.84784,-9.4775 -5.64396,-6.8871 c 0.6035,-1.3483 1.07444,-2.7732 1.52914,-4.2009 l 8.87067,-1.4612 1.18831,-11.5884 -8.3373,-3.2139 c -0.15474,-1.506 -0.37709,-2.9835 -0.69697,-4.441 l 6.9279,-5.6338 -4.7855,-10.63427 -8.81645,1.4007 c -0.88014,-1.2163 -1.83608,-2.3867 -2.84656,-3.497 l 3.17233,-8.3293 -9.44108,-6.8625 -6.93492,5.6517 c -1.38255,-0.6187 -2.82421,-1.19 -4.29007,-1.6524 l -0.0535,-0.01 -1.3053,-8.7539 -11.59961,-1.1897 z m 3.79083,19.1635 c 8.00758,0.8214 14.88786,4.8483 19.54671,10.67167 l -2.90944,6.0092 c -3.61404,-5.8832 -9.83679,-10.0721 -17.23731,-10.8311 -12.61441,-1.29347 -23.88649,7.8813 -25.18014,20.4969 -1.29357,12.6149 7.88102,23.8873 20.49615,25.181 12.6144,1.2935 23.88648,-7.8813 25.18014,-20.4969 0.15283,-1.491 0.16686,-2.9702 0.0379,-4.4078 l -5.48221,0.3742 3.47484,-7.2544 3.52582,-7.2252 4.56613,6.6264 4.48773,6.6904 -4.71808,0.3564 c 0.1554,1.7821 0.14768,3.5934 -0.0416,5.4398 -1.62486,15.8455 -15.78418,27.3666 -31.62967,25.7417 -15.84489,-1.6252 -27.36623,-15.7789 -25.74129,-31.6251 1.62483,-15.8455 15.77885,-27.37287 31.62452,-25.74797 z m -1.1341,11.99627 c 9.35023,0.9586 16.15047,9.3136 15.19165,18.664 -0.95885,9.3505 -9.31275,16.1451 -18.66278,15.1863 -9.35024,-0.9587 -16.13342,-9.3058 -15.17459,-18.6564 0.95886,-9.3505 9.2955,-16.1528 18.64572,-15.1939 z"
             id="path3353" />
        </g>
        <g
           transform="matrix(0.07042633,-0.01221238,0.01221254,0.07042578,-4.6741975,80.011143)"
           id="g5286">
          <circle
             transform="translate(496.76376,515.14536)"
             id="path4144-1-6-1"
             style="color:#000000;display:inline;overflow:visible;visibility:visible;fill:#000000;fill-opacity:1;fill-rule:nonzero;stroke:none;stroke-width:9;marker:none;enable-background:accumulate"
             cx="169.90291"
             cy="349.51456"
             r="69.579285" />
          <path
             inkscape:connector-curvature="0"
             d="m 625.15621,851.65028 c -3.53771,1.20184 -9.45803,10.10875 -11.69667,7.87069 -2.23893,-2.24023 6.46275,-6.72262 11.69667,-7.87069 z m -2.90721,18.2507 c -3.66479,2.01262 -11.67277,16.01392 -13.17534,12.66075 -1.50255,-3.35308 7.92546,-10.65635 13.17534,-12.66075 z m -0.35834,17.87714 c -2.53856,3.88038 -2.53574,20.69119 -5.99149,18.65715 -3.45589,-2.03397 1.84683,-13.86078 5.99149,-18.65715 z m 57.79404,-74.06347 c 11.11739,-4.96337 30.04839,-4.18364 37.49416,20.63036 2.15402,7.17821 0.51838,12.3404 -0.31838,15.74168 -0.12389,0.47191 -1.77579,4.18618 -1.89096,4.91531 -0.11992,0.75922 5.03036,12.51731 5.65854,14.01198 1.21214,3.06989 0.2405,3.59394 -0.71757,4.23468 l -33.19111,16.53298 c -1.67154,0.83261 -2.48063,-0.74558 -3.05342,-2.10387 l -5.96828,-15.10808 c -0.47172,-0.80049 -2.09458,-1.6377 -2.84997,-2.29683 -9.42622,-5.07604 -15.24095,-7.68197 -32.25699,-16.39031 l -9.41208,6.66356 c -1.21965,0.88967 -6.02525,-13.76223 -0.58501,-18.13828 l 10.65451,6.20903 16.00987,6.24634 8.94897,-4.50855 -3.58476,-8.87649 c 0.0631,-14.7606 6.55485,-23.69874 15.06554,-27.76317 z m 1.73488,3.06362 c -9.54528,5.38261 -10.33069,10.22365 -12.42729,18.69648 0.12291,1.34576 -0.29627,2.99008 3.17306,1.05673 l 26.37835,-13.47566 c 1.4244,-0.72732 2.93339,-0.19002 4.32499,3.12004 l 7.78156,18.50251 c 1.69301,-0.89236 4.96144,0.1234 2.96161,-9.665 -4.91469,-20.54085 -22.6452,-23.61921 -32.19135,-18.23618 z"
             style="fill:#ffffff;stroke:#ffffff;stroke-width:0.35665274px"
             id="path3220-9" />
        </g>
        <g
           transform="matrix(0.06040964,-0.01047542,0.01047556,0.06040916,33.818675,128.01414)"
           id="g5314">
          <circle
             transform="translate(336.56958,384.0774)"
             id="path4144-1-6-79"
             style="color:#000000;display:inline;overflow:visible;visibility:visible;fill:#000000;fill-opacity:1;fill-rule:nonzero;stroke:none;stroke-width:9;marker:none;enable-background:accumulate"
             cx="169.90291"
             cy="349.51456"
             r="69.579285" />
          <path
             inkscape:connector-curvature="0"
             d="m 494.43039,758.57075 22.04798,0.48916 -0.0712,3.20703 -22.04804,-0.48918 z m -0.11677,5.25588 16.16795,0.35877 -0.0713,3.2071 -16.16793,-0.35871 z m -0.11657,5.25595 27.66041,0.61374 -0.0713,3.20714 -27.66048,-0.61382 z m 0.34986,-15.76791 27.66039,0.61385 -0.0711,3.20703 -27.66041,-0.61371 z m -4.29357,-48.4025 -0.49502,22.31004 42.12952,0.93487 0.49493,-22.31015 z m 2.8252,2.90258 36.35152,0.80668 -0.36791,16.58263 -36.35157,-0.80662 0.1835,-8.2666 0.1845,-8.31659 z m -17.36426,7.93534 -0.28621,12.89807 -0.33705,15.18873 -0.28613,12.89812 12.05104,0.26741 0.28621,-12.89808 46.61053,1.0343 -0.28624,12.89805 12.10096,0.2685 0.2862,-12.8981 0.33692,-15.18874 0.28626,-12.89805 -12.10091,-0.26853 -0.28622,12.89807 -46.61051,-1.03419 0.28623,-12.89812 z m 13.63008,30.1473 -0.7856,35.4078 42.1296,0.93484 0.78566,-35.40771 z m 2.57288,3.04658 36.30216,0.80552 -0.65747,29.631 -36.30212,-0.80558 0.32927,-14.84013 0.32816,-14.79034 z m 53.90734,-9.35537 c 16.30257,-4.84999 14.69068,-35.44679 -6.1056,-33.54697 -2.2069,-16.50602 -13.30899,-23.44545 -25.10626,-23.75513 -13.02734,-0.34213 -25.18996,6.60673 -26.98044,16.30797 -18.69103,-1.5386 -30.56812,10.86605 -30.51698,21.85605 -0.59621,12.18773 7.71357,21.80664 18.13844,23.06797 -6.94008,-3.18429 -13.30793,-11.34808 -13.62813,-22.26161 -0.2635,-8.97909 9.9951,-18.79263 29.25321,-17.92685 -0.57082,-7.82535 10.9278,-16.82676 23.4801,-16.27243 10.65672,0.4704 20.48354,7.83824 22.33265,24.08741 7.29238,-1.01912 12.2235,0.27096 14.72147,4.84699 3.50993,6.42932 2.20924,18.36829 -5.58846,23.5969 z"
             style="fill:#ffffff;fill-opacity:1"
             id="path4902" />
        </g>
        <g
           id="g5417"
           transform="matrix(0.06684832,-0.01159193,0.01159208,0.06684779,20.337856,124.1581)">
          <circle
             transform="translate(799.18437,-10.967879)"
             id="path4144-1-6-74"
             style="color:#000000;display:inline;overflow:visible;visibility:visible;fill:#000000;fill-opacity:1;fill-rule:nonzero;stroke:none;stroke-width:9;marker:none;enable-background:accumulate"
             cx="169.90291"
             cy="349.51456"
             r="69.579285" />
          <path
             inkscape:connector-curvature="0"
             d="m 991.74273,324.83727 c -0.0139,0.99714 -0.50807,9.21555 -12.69597,16.83682 -6.00424,4.80926 -24.97891,19.52642 -16.67669,29.90761 -1.05559,1.60174 -2.25622,3.22586 -3.42004,9.58651 -0.75256,-5.22118 -2.66878,-6.88653 -3.30445,-7.96662 5.70357,-10.11785 -0.6726,-15.47519 -6.0236,-22.36032 -6.69472,-6.29848 -4.89671,-13.16545 -4.89671,-13.16545 0,0 -8.9502,30.6966 3.62882,36.84326 12.57896,6.14666 4.45283,0.99882 6.80063,-0.55747 3.46679,5.90161 3.16996,11.19912 3.16996,11.19912 l 1.29524,0.0284 c -0.44119,-3.61056 3.44713,-12.38345 3.44713,-12.38345 3.16175,1.98251 9.20723,-0.74541 9.20723,-0.74541 22.0035,-7.86122 19.54184,-46.14986 19.46837,-47.22418 z m 13.21887,-31.63875 -4.7894,-1.29797 -3.64167,14.95035 -12.6889,-14.736 -2.00877,8.33351 40.77394,46.96208 c 2.5204,0.73688 5.2551,0.89669 5.076,-4.41183 l -27.1662,-31.52721 4.4456,-18.2701 z m -22.56055,-1.58092 -63.61203,21.34348 c -2.7246,4.06184 -0.0711,5.86958 2.08388,6.39439 l 59.32371,-19.26063 2.2057,-8.47781 z m -45.5322,24.67064 -7.30057,2.94242 -16.41252,59.27511 5.82575,1.61318 17.88775,-63.83248 z m 73.55365,20.36747 -17.4914,63.94221 5.82565,1.61318 16.41255,-59.27509 -4.7472,-6.27857 z m -100.88878,42.04283 c -1.09293,0.77833 -1.75836,1.67506 -0.83396,3.01199 l 92.23284,25.53983 c 0.8945,-0.5895 1.7451,-1.20849 0.8339,-3.01199 z"
             style="fill:#ffffff"
             id="path5464-5" />
        </g>
        <g
           id="g5444"
           transform="matrix(0.06862109,-0.01189934,0.01189949,0.06862055,67.417838,131.25108)">
          <circle
             transform="translate(-44.792117,-161.51862)"
             id="path4144-1-6-86"
             style="color:#000000;display:inline;overflow:visible;visibility:visible;fill:#000000;fill-opacity:1;fill-rule:nonzero;stroke:none;stroke-width:9;marker:none;enable-background:accumulate"
             cx="169.90291"
             cy="349.51456"
             r="69.579285" />
          <path
             sodipodi:nodetypes="ccccccccscccccscccccccccccccccccscccccccccccccccccccccccc"
             style="fill:#ffffff"
             inkscape:connector-curvature="0"
             d="m 137.99884,240.04056 c -0.0169,-0.0583 0.0167,-0.58962 0.073,-1.18094 -0.90268,-4.60966 -3.20436,-9.02883 -4.80733,-13.48317 -0.89234,-2.53992 -1.7403,-4.72766 -1.88424,-4.86183 -0.17491,-0.16292 -1.08619,0.0909 -2.74904,0.76573 -10.00847,4.06193 -9.24058,3.34279 -13.14751,6.20094 -2.88984,1.8214 -9.66365,4.1589 -9.66365,4.1589 0,0 1.53956,-2.59504 0.27217,-4.80196 -0.76486,-0.80754 -3.89484,-1.16438 -8.10117,-0.92362 -2.267079,0.12978 -4.264828,0.15718 -4.439343,0.0609 -0.193126,-0.10651 0.08322,-1.02047 0.706008,-2.33516 0.981729,-2.07228 1.054081,-2.54133 0.577903,-3.74466 -0.426817,-1.07839 -2.114071,-1.96364 -6.143706,-3.22325 -2.257854,-0.70584 -4.132152,-1.37732 -4.16485,-1.49213 -0.03278,-0.11483 0.615427,-0.81286 1.44047,-1.55122 2.814888,-2.51916 2.930072,-3.22928 1.001989,-6.17863 -3.599722,-5.72159 -6.588261,-11.85737 -10.384714,-17.45273 -1.089957,-1.59054 -3.139124,-2.20594 -4.266959,-3.70995 7.56917,-4.03182 17.779396,-3.96832 26.070145,-1.96587 4.459977,1.45803 5.517037,1.11161 5.025577,-1.64683 -0.64203,-3.94288 -0.0617,-7.90126 -0.34157,-11.86998 -0.24612,-2.90514 -0.38055,-3.54311 -0.95191,-4.5178 -1.32222,-2.25575 -1.19579,-2.37413 1.71806,-1.60855 1.98095,0.5205 3.82798,0.55893 4.06593,0.0845 0.0621,-0.12388 -0.18143,-0.69565 -0.54134,-1.27059 -0.61266,-0.97867 -0.64637,-1.29486 -0.52813,-4.95286 0.14492,-5.11097 1.82932,-9.99004 2.91497,-14.95486 1.16683,-5.42301 2.33276,-8.8885 3.07231,-9.13191 0.97202,1.23735 1.31799,3.20169 2.15117,4.68363 1.45001,2.35835 5.47366,6.76789 8.52874,9.34712 2.58405,2.18148 2.8755,2.34824 3.65386,2.09222 0.95474,-0.1179 1.44475,-1.86963 2.30625,-1.24366 0.27709,0.21979 0.951,1.74564 1.62066,3.66959 0.94012,2.70099 1.29415,3.42084 1.96869,4.00195 3.94109,3.94611 7.78984,8.86324 9.46943,14.25893 1.61721,5.43899 1.91065,5.6573 4.08876,3.04424 3.28899,-3.90357 6.91581,-7.35485 11.17805,-10.18726 8.93047,-5.71577 10.89552,-7.10889 12.79603,-9.07187 1.38257,2.73345 -0.0626,8.20442 -0.28879,11.36712 -0.0693,3.23092 -0.26618,6.32342 -0.70672,11.09999 -0.21545,2.33576 -0.51147,3.61502 -1.14697,4.95601 -0.47106,0.99418 -0.83297,1.89013 -0.80417,1.99092 0.0288,0.10081 0.3292,0.32042 0.66757,0.48803 1.33235,0.41589 2.60299,-0.56361 3.91925,-0.61383 0.12095,0.42397 -0.3756,2.31124 -0.95474,3.62827 -1.1826,2.68959 -2.8167,7.53836 -2.85293,8.4651 -0.0251,0.63495 0.10073,1.0549 0.4143,1.38601 1.47848,1.53045 5.5581,1.77814 5.5581,1.77814 -1.68479,4.17367 -9.839,6.80024 -9.5628,11.46587 0.42652,2.31627 4.76581,3.96998 4.76581,3.96998 -9.45452,4.22551 -21.13654,5.76767 -31.8401,3.95784 -0.9432,-0.12972 -1.99766,-0.14282 -2.34326,-0.0291 -0.59066,0.19435 -0.60015,0.30581 -0.15718,1.85799 0.46567,3.99427 7.09781,14.02386 6.40782,16.94273 -0.25941,0.5852 -3.55126,2.66199 -3.65976,2.28153 h -2e-5 z"
             id="path3183" />
        </g>
      </g>
      <g
         transform="matrix(3.3589964,0,0,3.3589964,-112.3511,-413.31936)"
         id="g4988">
        <ellipse
           cy="164.28186"
           cx="41.139782"
           style="color:#000000;display:inline;overflow:visible;visibility:visible;fill:#b3b3b3;fill-opacity:1;fill-rule:nonzero;stroke:#ffffff;stroke-width:1.5163722;marker:none;enable-background:accumulate"
           id="path4144-1-6-27"
           transform="matrix(0.98529591,-0.17085659,0.17086013,0.98529529,0,0)"
           rx="11.723165"
           ry="11.723079" />
        <g
           id="g4805"
           transform="matrix(0.02206581,0,0,0.02206581,61.385102,154.87363)">
          <path
             d="m 327.1671,-310.50331 c -53.53115,0 -96.93692,43.40511 -96.93692,96.93692 v 201.296757 c 0,53.53112 43.40512,96.93693 96.93692,96.93693 53.53108,0 96.91604,-43.40512 96.91604,-96.93693 V -213.56639 c 0,-53.53181 -43.38423,-96.93692 -96.91604,-96.93692 z"
             id="path2997"
             inkscape:connector-curvature="0"
             style="opacity:0.98999999;fill:#000000;stroke:none;stroke-width:14.91203213;stroke-linecap:round" />
          <rect
             y="196.88426"
             x="296.13147"
             height="110.31167"
             width="62.050312"
             id="rect252"
             style="opacity:1;fill:#000000;fill-opacity:1;stroke:none;stroke-width:1.32893872;stroke-miterlimit:2;stroke-dasharray:none" />
          <ellipse
             transform="matrix(3.4472396,0,0,3.4472396,-508.47186,-608.67502)"
             clip-path="url(#clipPath4798)"
             ry="58.337704"
             rx="58.110767"
             cy="170.03156"
             cx="242.40512"
             id="path250"
             style="opacity:1;fill:none;fill-opacity:1;stroke:#000000;stroke-width:15.24298859;stroke-miterlimit:2;stroke-dasharray:none" />
        </g>
      </g>
    </g>
  </g>
</svg>
